G04 #@! TF.GenerationSoftware,KiCad,Pcbnew,(5.1.5)-3*
G04 #@! TF.CreationDate,2020-06-05T14:31:45+02:00*
G04 #@! TF.ProjectId,Perfboard,50657266-626f-4617-9264-2e6b69636164,rev?*
G04 #@! TF.SameCoordinates,Original*
G04 #@! TF.FileFunction,Legend,Bot*
G04 #@! TF.FilePolarity,Positive*
%FSLAX46Y46*%
G04 Gerber Fmt 4.6, Leading zero omitted, Abs format (unit mm)*
G04 Created by KiCad (PCBNEW (5.1.5)-3) date 2020-06-05 14:31:45*
%MOMM*%
%LPD*%
G04 APERTURE LIST*
%ADD10C,0.300000*%
G04 APERTURE END LIST*
D10*
X121598571Y-65611428D02*
X122598571Y-65611428D01*
X121027142Y-65254285D02*
X122098571Y-64897142D01*
X122098571Y-65825714D01*
X121098571Y-66682857D02*
X121098571Y-66825714D01*
X121170000Y-66968571D01*
X121241428Y-67040000D01*
X121384285Y-67111428D01*
X121670000Y-67182857D01*
X122027142Y-67182857D01*
X122312857Y-67111428D01*
X122455714Y-67040000D01*
X122527142Y-66968571D01*
X122598571Y-66825714D01*
X122598571Y-66682857D01*
X122527142Y-66540000D01*
X122455714Y-66468571D01*
X122312857Y-66397142D01*
X122027142Y-66325714D01*
X121670000Y-66325714D01*
X121384285Y-66397142D01*
X121241428Y-66468571D01*
X121170000Y-66540000D01*
X121098571Y-66682857D01*
X95698571Y-64825714D02*
X95698571Y-65754285D01*
X96270000Y-65254285D01*
X96270000Y-65468571D01*
X96341428Y-65611428D01*
X96412857Y-65682857D01*
X96555714Y-65754285D01*
X96912857Y-65754285D01*
X97055714Y-65682857D01*
X97127142Y-65611428D01*
X97198571Y-65468571D01*
X97198571Y-65040000D01*
X97127142Y-64897142D01*
X97055714Y-64825714D01*
X95698571Y-66682857D02*
X95698571Y-66825714D01*
X95770000Y-66968571D01*
X95841428Y-67040000D01*
X95984285Y-67111428D01*
X96270000Y-67182857D01*
X96627142Y-67182857D01*
X96912857Y-67111428D01*
X97055714Y-67040000D01*
X97127142Y-66968571D01*
X97198571Y-66825714D01*
X97198571Y-66682857D01*
X97127142Y-66540000D01*
X97055714Y-66468571D01*
X96912857Y-66397142D01*
X96627142Y-66325714D01*
X96270000Y-66325714D01*
X95984285Y-66397142D01*
X95841428Y-66468571D01*
X95770000Y-66540000D01*
X95698571Y-66682857D01*
X83141428Y-64897142D02*
X83070000Y-64968571D01*
X82998571Y-65111428D01*
X82998571Y-65468571D01*
X83070000Y-65611428D01*
X83141428Y-65682857D01*
X83284285Y-65754285D01*
X83427142Y-65754285D01*
X83641428Y-65682857D01*
X84498571Y-64825714D01*
X84498571Y-65754285D01*
X82998571Y-67111428D02*
X82998571Y-66397142D01*
X83712857Y-66325714D01*
X83641428Y-66397142D01*
X83570000Y-66540000D01*
X83570000Y-66897142D01*
X83641428Y-67040000D01*
X83712857Y-67111428D01*
X83855714Y-67182857D01*
X84212857Y-67182857D01*
X84355714Y-67111428D01*
X84427142Y-67040000D01*
X84498571Y-66897142D01*
X84498571Y-66540000D01*
X84427142Y-66397142D01*
X84355714Y-66325714D01*
X171898571Y-65611428D02*
X171898571Y-65325714D01*
X171970000Y-65182857D01*
X172041428Y-65111428D01*
X172255714Y-64968571D01*
X172541428Y-64897142D01*
X173112857Y-64897142D01*
X173255714Y-64968571D01*
X173327142Y-65040000D01*
X173398571Y-65182857D01*
X173398571Y-65468571D01*
X173327142Y-65611428D01*
X173255714Y-65682857D01*
X173112857Y-65754285D01*
X172755714Y-65754285D01*
X172612857Y-65682857D01*
X172541428Y-65611428D01*
X172470000Y-65468571D01*
X172470000Y-65182857D01*
X172541428Y-65040000D01*
X172612857Y-64968571D01*
X172755714Y-64897142D01*
X171898571Y-66682857D02*
X171898571Y-66825714D01*
X171970000Y-66968571D01*
X172041428Y-67040000D01*
X172184285Y-67111428D01*
X172470000Y-67182857D01*
X172827142Y-67182857D01*
X173112857Y-67111428D01*
X173255714Y-67040000D01*
X173327142Y-66968571D01*
X173398571Y-66825714D01*
X173398571Y-66682857D01*
X173327142Y-66540000D01*
X173255714Y-66468571D01*
X173112857Y-66397142D01*
X172827142Y-66325714D01*
X172470000Y-66325714D01*
X172184285Y-66397142D01*
X172041428Y-66468571D01*
X171970000Y-66540000D01*
X171898571Y-66682857D01*
X32198571Y-66397142D02*
X32198571Y-65682857D01*
X32912857Y-65611428D01*
X32841428Y-65682857D01*
X32770000Y-65825714D01*
X32770000Y-66182857D01*
X32841428Y-66325714D01*
X32912857Y-66397142D01*
X33055714Y-66468571D01*
X33412857Y-66468571D01*
X33555714Y-66397142D01*
X33627142Y-66325714D01*
X33698571Y-66182857D01*
X33698571Y-65825714D01*
X33627142Y-65682857D01*
X33555714Y-65611428D01*
X70441428Y-64897142D02*
X70370000Y-64968571D01*
X70298571Y-65111428D01*
X70298571Y-65468571D01*
X70370000Y-65611428D01*
X70441428Y-65682857D01*
X70584285Y-65754285D01*
X70727142Y-65754285D01*
X70941428Y-65682857D01*
X71798571Y-64825714D01*
X71798571Y-65754285D01*
X70298571Y-66682857D02*
X70298571Y-66825714D01*
X70370000Y-66968571D01*
X70441428Y-67040000D01*
X70584285Y-67111428D01*
X70870000Y-67182857D01*
X71227142Y-67182857D01*
X71512857Y-67111428D01*
X71655714Y-67040000D01*
X71727142Y-66968571D01*
X71798571Y-66825714D01*
X71798571Y-66682857D01*
X71727142Y-66540000D01*
X71655714Y-66468571D01*
X71512857Y-66397142D01*
X71227142Y-66325714D01*
X70870000Y-66325714D01*
X70584285Y-66397142D01*
X70441428Y-66468571D01*
X70370000Y-66540000D01*
X70298571Y-66682857D01*
X134298571Y-65611428D02*
X135298571Y-65611428D01*
X133727142Y-65254285D02*
X134798571Y-64897142D01*
X134798571Y-65825714D01*
X133798571Y-67111428D02*
X133798571Y-66397142D01*
X134512857Y-66325714D01*
X134441428Y-66397142D01*
X134370000Y-66540000D01*
X134370000Y-66897142D01*
X134441428Y-67040000D01*
X134512857Y-67111428D01*
X134655714Y-67182857D01*
X135012857Y-67182857D01*
X135155714Y-67111428D01*
X135227142Y-67040000D01*
X135298571Y-66897142D01*
X135298571Y-66540000D01*
X135227142Y-66397142D01*
X135155714Y-66325714D01*
X59098571Y-65754285D02*
X59098571Y-64897142D01*
X59098571Y-65325714D02*
X57598571Y-65325714D01*
X57812857Y-65182857D01*
X57955714Y-65040000D01*
X58027142Y-64897142D01*
X57598571Y-67111428D02*
X57598571Y-66397142D01*
X58312857Y-66325714D01*
X58241428Y-66397142D01*
X58170000Y-66540000D01*
X58170000Y-66897142D01*
X58241428Y-67040000D01*
X58312857Y-67111428D01*
X58455714Y-67182857D01*
X58812857Y-67182857D01*
X58955714Y-67111428D01*
X59027142Y-67040000D01*
X59098571Y-66897142D01*
X59098571Y-66540000D01*
X59027142Y-66397142D01*
X58955714Y-66325714D01*
X46398571Y-65754285D02*
X46398571Y-64897142D01*
X46398571Y-65325714D02*
X44898571Y-65325714D01*
X45112857Y-65182857D01*
X45255714Y-65040000D01*
X45327142Y-64897142D01*
X44898571Y-66682857D02*
X44898571Y-66825714D01*
X44970000Y-66968571D01*
X45041428Y-67040000D01*
X45184285Y-67111428D01*
X45470000Y-67182857D01*
X45827142Y-67182857D01*
X46112857Y-67111428D01*
X46255714Y-67040000D01*
X46327142Y-66968571D01*
X46398571Y-66825714D01*
X46398571Y-66682857D01*
X46327142Y-66540000D01*
X46255714Y-66468571D01*
X46112857Y-66397142D01*
X45827142Y-66325714D01*
X45470000Y-66325714D01*
X45184285Y-66397142D01*
X45041428Y-66468571D01*
X44970000Y-66540000D01*
X44898571Y-66682857D01*
X179518571Y-65611428D02*
X179518571Y-65325714D01*
X179590000Y-65182857D01*
X179661428Y-65111428D01*
X179875714Y-64968571D01*
X180161428Y-64897142D01*
X180732857Y-64897142D01*
X180875714Y-64968571D01*
X180947142Y-65040000D01*
X181018571Y-65182857D01*
X181018571Y-65468571D01*
X180947142Y-65611428D01*
X180875714Y-65682857D01*
X180732857Y-65754285D01*
X180375714Y-65754285D01*
X180232857Y-65682857D01*
X180161428Y-65611428D01*
X180090000Y-65468571D01*
X180090000Y-65182857D01*
X180161428Y-65040000D01*
X180232857Y-64968571D01*
X180375714Y-64897142D01*
X179518571Y-66254285D02*
X179518571Y-67182857D01*
X180090000Y-66682857D01*
X180090000Y-66897142D01*
X180161428Y-67040000D01*
X180232857Y-67111428D01*
X180375714Y-67182857D01*
X180732857Y-67182857D01*
X180875714Y-67111428D01*
X180947142Y-67040000D01*
X181018571Y-66897142D01*
X181018571Y-66468571D01*
X180947142Y-66325714D01*
X180875714Y-66254285D01*
X146498571Y-65682857D02*
X146498571Y-64968571D01*
X147212857Y-64897142D01*
X147141428Y-64968571D01*
X147070000Y-65111428D01*
X147070000Y-65468571D01*
X147141428Y-65611428D01*
X147212857Y-65682857D01*
X147355714Y-65754285D01*
X147712857Y-65754285D01*
X147855714Y-65682857D01*
X147927142Y-65611428D01*
X147998571Y-65468571D01*
X147998571Y-65111428D01*
X147927142Y-64968571D01*
X147855714Y-64897142D01*
X146498571Y-66682857D02*
X146498571Y-66825714D01*
X146570000Y-66968571D01*
X146641428Y-67040000D01*
X146784285Y-67111428D01*
X147070000Y-67182857D01*
X147427142Y-67182857D01*
X147712857Y-67111428D01*
X147855714Y-67040000D01*
X147927142Y-66968571D01*
X147998571Y-66825714D01*
X147998571Y-66682857D01*
X147927142Y-66540000D01*
X147855714Y-66468571D01*
X147712857Y-66397142D01*
X147427142Y-66325714D01*
X147070000Y-66325714D01*
X146784285Y-66397142D01*
X146641428Y-66468571D01*
X146570000Y-66540000D01*
X146498571Y-66682857D01*
X108398571Y-64825714D02*
X108398571Y-65754285D01*
X108970000Y-65254285D01*
X108970000Y-65468571D01*
X109041428Y-65611428D01*
X109112857Y-65682857D01*
X109255714Y-65754285D01*
X109612857Y-65754285D01*
X109755714Y-65682857D01*
X109827142Y-65611428D01*
X109898571Y-65468571D01*
X109898571Y-65040000D01*
X109827142Y-64897142D01*
X109755714Y-64825714D01*
X108398571Y-67111428D02*
X108398571Y-66397142D01*
X109112857Y-66325714D01*
X109041428Y-66397142D01*
X108970000Y-66540000D01*
X108970000Y-66897142D01*
X109041428Y-67040000D01*
X109112857Y-67111428D01*
X109255714Y-67182857D01*
X109612857Y-67182857D01*
X109755714Y-67111428D01*
X109827142Y-67040000D01*
X109898571Y-66897142D01*
X109898571Y-66540000D01*
X109827142Y-66397142D01*
X109755714Y-66325714D01*
X159198571Y-65682857D02*
X159198571Y-64968571D01*
X159912857Y-64897142D01*
X159841428Y-64968571D01*
X159770000Y-65111428D01*
X159770000Y-65468571D01*
X159841428Y-65611428D01*
X159912857Y-65682857D01*
X160055714Y-65754285D01*
X160412857Y-65754285D01*
X160555714Y-65682857D01*
X160627142Y-65611428D01*
X160698571Y-65468571D01*
X160698571Y-65111428D01*
X160627142Y-64968571D01*
X160555714Y-64897142D01*
X159198571Y-67111428D02*
X159198571Y-66397142D01*
X159912857Y-66325714D01*
X159841428Y-66397142D01*
X159770000Y-66540000D01*
X159770000Y-66897142D01*
X159841428Y-67040000D01*
X159912857Y-67111428D01*
X160055714Y-67182857D01*
X160412857Y-67182857D01*
X160555714Y-67111428D01*
X160627142Y-67040000D01*
X160698571Y-66897142D01*
X160698571Y-66540000D01*
X160627142Y-66397142D01*
X160555714Y-66325714D01*
X70441428Y-48387142D02*
X70370000Y-48458571D01*
X70298571Y-48601428D01*
X70298571Y-48958571D01*
X70370000Y-49101428D01*
X70441428Y-49172857D01*
X70584285Y-49244285D01*
X70727142Y-49244285D01*
X70941428Y-49172857D01*
X71798571Y-48315714D01*
X71798571Y-49244285D01*
X70298571Y-50172857D02*
X70298571Y-50315714D01*
X70370000Y-50458571D01*
X70441428Y-50530000D01*
X70584285Y-50601428D01*
X70870000Y-50672857D01*
X71227142Y-50672857D01*
X71512857Y-50601428D01*
X71655714Y-50530000D01*
X71727142Y-50458571D01*
X71798571Y-50315714D01*
X71798571Y-50172857D01*
X71727142Y-50030000D01*
X71655714Y-49958571D01*
X71512857Y-49887142D01*
X71227142Y-49815714D01*
X70870000Y-49815714D01*
X70584285Y-49887142D01*
X70441428Y-49958571D01*
X70370000Y-50030000D01*
X70298571Y-50172857D01*
X32198571Y-49887142D02*
X32198571Y-49172857D01*
X32912857Y-49101428D01*
X32841428Y-49172857D01*
X32770000Y-49315714D01*
X32770000Y-49672857D01*
X32841428Y-49815714D01*
X32912857Y-49887142D01*
X33055714Y-49958571D01*
X33412857Y-49958571D01*
X33555714Y-49887142D01*
X33627142Y-49815714D01*
X33698571Y-49672857D01*
X33698571Y-49315714D01*
X33627142Y-49172857D01*
X33555714Y-49101428D01*
X121598571Y-49101428D02*
X122598571Y-49101428D01*
X121027142Y-48744285D02*
X122098571Y-48387142D01*
X122098571Y-49315714D01*
X121098571Y-50172857D02*
X121098571Y-50315714D01*
X121170000Y-50458571D01*
X121241428Y-50530000D01*
X121384285Y-50601428D01*
X121670000Y-50672857D01*
X122027142Y-50672857D01*
X122312857Y-50601428D01*
X122455714Y-50530000D01*
X122527142Y-50458571D01*
X122598571Y-50315714D01*
X122598571Y-50172857D01*
X122527142Y-50030000D01*
X122455714Y-49958571D01*
X122312857Y-49887142D01*
X122027142Y-49815714D01*
X121670000Y-49815714D01*
X121384285Y-49887142D01*
X121241428Y-49958571D01*
X121170000Y-50030000D01*
X121098571Y-50172857D01*
X95698571Y-48315714D02*
X95698571Y-49244285D01*
X96270000Y-48744285D01*
X96270000Y-48958571D01*
X96341428Y-49101428D01*
X96412857Y-49172857D01*
X96555714Y-49244285D01*
X96912857Y-49244285D01*
X97055714Y-49172857D01*
X97127142Y-49101428D01*
X97198571Y-48958571D01*
X97198571Y-48530000D01*
X97127142Y-48387142D01*
X97055714Y-48315714D01*
X95698571Y-50172857D02*
X95698571Y-50315714D01*
X95770000Y-50458571D01*
X95841428Y-50530000D01*
X95984285Y-50601428D01*
X96270000Y-50672857D01*
X96627142Y-50672857D01*
X96912857Y-50601428D01*
X97055714Y-50530000D01*
X97127142Y-50458571D01*
X97198571Y-50315714D01*
X97198571Y-50172857D01*
X97127142Y-50030000D01*
X97055714Y-49958571D01*
X96912857Y-49887142D01*
X96627142Y-49815714D01*
X96270000Y-49815714D01*
X95984285Y-49887142D01*
X95841428Y-49958571D01*
X95770000Y-50030000D01*
X95698571Y-50172857D01*
X46398571Y-49244285D02*
X46398571Y-48387142D01*
X46398571Y-48815714D02*
X44898571Y-48815714D01*
X45112857Y-48672857D01*
X45255714Y-48530000D01*
X45327142Y-48387142D01*
X44898571Y-50172857D02*
X44898571Y-50315714D01*
X44970000Y-50458571D01*
X45041428Y-50530000D01*
X45184285Y-50601428D01*
X45470000Y-50672857D01*
X45827142Y-50672857D01*
X46112857Y-50601428D01*
X46255714Y-50530000D01*
X46327142Y-50458571D01*
X46398571Y-50315714D01*
X46398571Y-50172857D01*
X46327142Y-50030000D01*
X46255714Y-49958571D01*
X46112857Y-49887142D01*
X45827142Y-49815714D01*
X45470000Y-49815714D01*
X45184285Y-49887142D01*
X45041428Y-49958571D01*
X44970000Y-50030000D01*
X44898571Y-50172857D01*
X59098571Y-49244285D02*
X59098571Y-48387142D01*
X59098571Y-48815714D02*
X57598571Y-48815714D01*
X57812857Y-48672857D01*
X57955714Y-48530000D01*
X58027142Y-48387142D01*
X57598571Y-50601428D02*
X57598571Y-49887142D01*
X58312857Y-49815714D01*
X58241428Y-49887142D01*
X58170000Y-50030000D01*
X58170000Y-50387142D01*
X58241428Y-50530000D01*
X58312857Y-50601428D01*
X58455714Y-50672857D01*
X58812857Y-50672857D01*
X58955714Y-50601428D01*
X59027142Y-50530000D01*
X59098571Y-50387142D01*
X59098571Y-50030000D01*
X59027142Y-49887142D01*
X58955714Y-49815714D01*
X83141428Y-48387142D02*
X83070000Y-48458571D01*
X82998571Y-48601428D01*
X82998571Y-48958571D01*
X83070000Y-49101428D01*
X83141428Y-49172857D01*
X83284285Y-49244285D01*
X83427142Y-49244285D01*
X83641428Y-49172857D01*
X84498571Y-48315714D01*
X84498571Y-49244285D01*
X82998571Y-50601428D02*
X82998571Y-49887142D01*
X83712857Y-49815714D01*
X83641428Y-49887142D01*
X83570000Y-50030000D01*
X83570000Y-50387142D01*
X83641428Y-50530000D01*
X83712857Y-50601428D01*
X83855714Y-50672857D01*
X84212857Y-50672857D01*
X84355714Y-50601428D01*
X84427142Y-50530000D01*
X84498571Y-50387142D01*
X84498571Y-50030000D01*
X84427142Y-49887142D01*
X84355714Y-49815714D01*
X159198571Y-49172857D02*
X159198571Y-48458571D01*
X159912857Y-48387142D01*
X159841428Y-48458571D01*
X159770000Y-48601428D01*
X159770000Y-48958571D01*
X159841428Y-49101428D01*
X159912857Y-49172857D01*
X160055714Y-49244285D01*
X160412857Y-49244285D01*
X160555714Y-49172857D01*
X160627142Y-49101428D01*
X160698571Y-48958571D01*
X160698571Y-48601428D01*
X160627142Y-48458571D01*
X160555714Y-48387142D01*
X159198571Y-50601428D02*
X159198571Y-49887142D01*
X159912857Y-49815714D01*
X159841428Y-49887142D01*
X159770000Y-50030000D01*
X159770000Y-50387142D01*
X159841428Y-50530000D01*
X159912857Y-50601428D01*
X160055714Y-50672857D01*
X160412857Y-50672857D01*
X160555714Y-50601428D01*
X160627142Y-50530000D01*
X160698571Y-50387142D01*
X160698571Y-50030000D01*
X160627142Y-49887142D01*
X160555714Y-49815714D01*
X171898571Y-49101428D02*
X171898571Y-48815714D01*
X171970000Y-48672857D01*
X172041428Y-48601428D01*
X172255714Y-48458571D01*
X172541428Y-48387142D01*
X173112857Y-48387142D01*
X173255714Y-48458571D01*
X173327142Y-48530000D01*
X173398571Y-48672857D01*
X173398571Y-48958571D01*
X173327142Y-49101428D01*
X173255714Y-49172857D01*
X173112857Y-49244285D01*
X172755714Y-49244285D01*
X172612857Y-49172857D01*
X172541428Y-49101428D01*
X172470000Y-48958571D01*
X172470000Y-48672857D01*
X172541428Y-48530000D01*
X172612857Y-48458571D01*
X172755714Y-48387142D01*
X171898571Y-50172857D02*
X171898571Y-50315714D01*
X171970000Y-50458571D01*
X172041428Y-50530000D01*
X172184285Y-50601428D01*
X172470000Y-50672857D01*
X172827142Y-50672857D01*
X173112857Y-50601428D01*
X173255714Y-50530000D01*
X173327142Y-50458571D01*
X173398571Y-50315714D01*
X173398571Y-50172857D01*
X173327142Y-50030000D01*
X173255714Y-49958571D01*
X173112857Y-49887142D01*
X172827142Y-49815714D01*
X172470000Y-49815714D01*
X172184285Y-49887142D01*
X172041428Y-49958571D01*
X171970000Y-50030000D01*
X171898571Y-50172857D01*
X134298571Y-49101428D02*
X135298571Y-49101428D01*
X133727142Y-48744285D02*
X134798571Y-48387142D01*
X134798571Y-49315714D01*
X133798571Y-50601428D02*
X133798571Y-49887142D01*
X134512857Y-49815714D01*
X134441428Y-49887142D01*
X134370000Y-50030000D01*
X134370000Y-50387142D01*
X134441428Y-50530000D01*
X134512857Y-50601428D01*
X134655714Y-50672857D01*
X135012857Y-50672857D01*
X135155714Y-50601428D01*
X135227142Y-50530000D01*
X135298571Y-50387142D01*
X135298571Y-50030000D01*
X135227142Y-49887142D01*
X135155714Y-49815714D01*
X179518571Y-49101428D02*
X179518571Y-48815714D01*
X179590000Y-48672857D01*
X179661428Y-48601428D01*
X179875714Y-48458571D01*
X180161428Y-48387142D01*
X180732857Y-48387142D01*
X180875714Y-48458571D01*
X180947142Y-48530000D01*
X181018571Y-48672857D01*
X181018571Y-48958571D01*
X180947142Y-49101428D01*
X180875714Y-49172857D01*
X180732857Y-49244285D01*
X180375714Y-49244285D01*
X180232857Y-49172857D01*
X180161428Y-49101428D01*
X180090000Y-48958571D01*
X180090000Y-48672857D01*
X180161428Y-48530000D01*
X180232857Y-48458571D01*
X180375714Y-48387142D01*
X179518571Y-49744285D02*
X179518571Y-50672857D01*
X180090000Y-50172857D01*
X180090000Y-50387142D01*
X180161428Y-50530000D01*
X180232857Y-50601428D01*
X180375714Y-50672857D01*
X180732857Y-50672857D01*
X180875714Y-50601428D01*
X180947142Y-50530000D01*
X181018571Y-50387142D01*
X181018571Y-49958571D01*
X180947142Y-49815714D01*
X180875714Y-49744285D01*
X146498571Y-49172857D02*
X146498571Y-48458571D01*
X147212857Y-48387142D01*
X147141428Y-48458571D01*
X147070000Y-48601428D01*
X147070000Y-48958571D01*
X147141428Y-49101428D01*
X147212857Y-49172857D01*
X147355714Y-49244285D01*
X147712857Y-49244285D01*
X147855714Y-49172857D01*
X147927142Y-49101428D01*
X147998571Y-48958571D01*
X147998571Y-48601428D01*
X147927142Y-48458571D01*
X147855714Y-48387142D01*
X146498571Y-50172857D02*
X146498571Y-50315714D01*
X146570000Y-50458571D01*
X146641428Y-50530000D01*
X146784285Y-50601428D01*
X147070000Y-50672857D01*
X147427142Y-50672857D01*
X147712857Y-50601428D01*
X147855714Y-50530000D01*
X147927142Y-50458571D01*
X147998571Y-50315714D01*
X147998571Y-50172857D01*
X147927142Y-50030000D01*
X147855714Y-49958571D01*
X147712857Y-49887142D01*
X147427142Y-49815714D01*
X147070000Y-49815714D01*
X146784285Y-49887142D01*
X146641428Y-49958571D01*
X146570000Y-50030000D01*
X146498571Y-50172857D01*
X108398571Y-48315714D02*
X108398571Y-49244285D01*
X108970000Y-48744285D01*
X108970000Y-48958571D01*
X109041428Y-49101428D01*
X109112857Y-49172857D01*
X109255714Y-49244285D01*
X109612857Y-49244285D01*
X109755714Y-49172857D01*
X109827142Y-49101428D01*
X109898571Y-48958571D01*
X109898571Y-48530000D01*
X109827142Y-48387142D01*
X109755714Y-48315714D01*
X108398571Y-50601428D02*
X108398571Y-49887142D01*
X109112857Y-49815714D01*
X109041428Y-49887142D01*
X108970000Y-50030000D01*
X108970000Y-50387142D01*
X109041428Y-50530000D01*
X109112857Y-50601428D01*
X109255714Y-50672857D01*
X109612857Y-50672857D01*
X109755714Y-50601428D01*
X109827142Y-50530000D01*
X109898571Y-50387142D01*
X109898571Y-50030000D01*
X109827142Y-49887142D01*
X109755714Y-49815714D01*
X146498571Y-32662857D02*
X146498571Y-31948571D01*
X147212857Y-31877142D01*
X147141428Y-31948571D01*
X147070000Y-32091428D01*
X147070000Y-32448571D01*
X147141428Y-32591428D01*
X147212857Y-32662857D01*
X147355714Y-32734285D01*
X147712857Y-32734285D01*
X147855714Y-32662857D01*
X147927142Y-32591428D01*
X147998571Y-32448571D01*
X147998571Y-32091428D01*
X147927142Y-31948571D01*
X147855714Y-31877142D01*
X146498571Y-33662857D02*
X146498571Y-33805714D01*
X146570000Y-33948571D01*
X146641428Y-34020000D01*
X146784285Y-34091428D01*
X147070000Y-34162857D01*
X147427142Y-34162857D01*
X147712857Y-34091428D01*
X147855714Y-34020000D01*
X147927142Y-33948571D01*
X147998571Y-33805714D01*
X147998571Y-33662857D01*
X147927142Y-33520000D01*
X147855714Y-33448571D01*
X147712857Y-33377142D01*
X147427142Y-33305714D01*
X147070000Y-33305714D01*
X146784285Y-33377142D01*
X146641428Y-33448571D01*
X146570000Y-33520000D01*
X146498571Y-33662857D01*
X95698571Y-31805714D02*
X95698571Y-32734285D01*
X96270000Y-32234285D01*
X96270000Y-32448571D01*
X96341428Y-32591428D01*
X96412857Y-32662857D01*
X96555714Y-32734285D01*
X96912857Y-32734285D01*
X97055714Y-32662857D01*
X97127142Y-32591428D01*
X97198571Y-32448571D01*
X97198571Y-32020000D01*
X97127142Y-31877142D01*
X97055714Y-31805714D01*
X95698571Y-33662857D02*
X95698571Y-33805714D01*
X95770000Y-33948571D01*
X95841428Y-34020000D01*
X95984285Y-34091428D01*
X96270000Y-34162857D01*
X96627142Y-34162857D01*
X96912857Y-34091428D01*
X97055714Y-34020000D01*
X97127142Y-33948571D01*
X97198571Y-33805714D01*
X97198571Y-33662857D01*
X97127142Y-33520000D01*
X97055714Y-33448571D01*
X96912857Y-33377142D01*
X96627142Y-33305714D01*
X96270000Y-33305714D01*
X95984285Y-33377142D01*
X95841428Y-33448571D01*
X95770000Y-33520000D01*
X95698571Y-33662857D01*
X83141428Y-31877142D02*
X83070000Y-31948571D01*
X82998571Y-32091428D01*
X82998571Y-32448571D01*
X83070000Y-32591428D01*
X83141428Y-32662857D01*
X83284285Y-32734285D01*
X83427142Y-32734285D01*
X83641428Y-32662857D01*
X84498571Y-31805714D01*
X84498571Y-32734285D01*
X82998571Y-34091428D02*
X82998571Y-33377142D01*
X83712857Y-33305714D01*
X83641428Y-33377142D01*
X83570000Y-33520000D01*
X83570000Y-33877142D01*
X83641428Y-34020000D01*
X83712857Y-34091428D01*
X83855714Y-34162857D01*
X84212857Y-34162857D01*
X84355714Y-34091428D01*
X84427142Y-34020000D01*
X84498571Y-33877142D01*
X84498571Y-33520000D01*
X84427142Y-33377142D01*
X84355714Y-33305714D01*
X59098571Y-32734285D02*
X59098571Y-31877142D01*
X59098571Y-32305714D02*
X57598571Y-32305714D01*
X57812857Y-32162857D01*
X57955714Y-32020000D01*
X58027142Y-31877142D01*
X57598571Y-34091428D02*
X57598571Y-33377142D01*
X58312857Y-33305714D01*
X58241428Y-33377142D01*
X58170000Y-33520000D01*
X58170000Y-33877142D01*
X58241428Y-34020000D01*
X58312857Y-34091428D01*
X58455714Y-34162857D01*
X58812857Y-34162857D01*
X58955714Y-34091428D01*
X59027142Y-34020000D01*
X59098571Y-33877142D01*
X59098571Y-33520000D01*
X59027142Y-33377142D01*
X58955714Y-33305714D01*
X159198571Y-32662857D02*
X159198571Y-31948571D01*
X159912857Y-31877142D01*
X159841428Y-31948571D01*
X159770000Y-32091428D01*
X159770000Y-32448571D01*
X159841428Y-32591428D01*
X159912857Y-32662857D01*
X160055714Y-32734285D01*
X160412857Y-32734285D01*
X160555714Y-32662857D01*
X160627142Y-32591428D01*
X160698571Y-32448571D01*
X160698571Y-32091428D01*
X160627142Y-31948571D01*
X160555714Y-31877142D01*
X159198571Y-34091428D02*
X159198571Y-33377142D01*
X159912857Y-33305714D01*
X159841428Y-33377142D01*
X159770000Y-33520000D01*
X159770000Y-33877142D01*
X159841428Y-34020000D01*
X159912857Y-34091428D01*
X160055714Y-34162857D01*
X160412857Y-34162857D01*
X160555714Y-34091428D01*
X160627142Y-34020000D01*
X160698571Y-33877142D01*
X160698571Y-33520000D01*
X160627142Y-33377142D01*
X160555714Y-33305714D01*
X179518571Y-32591428D02*
X179518571Y-32305714D01*
X179590000Y-32162857D01*
X179661428Y-32091428D01*
X179875714Y-31948571D01*
X180161428Y-31877142D01*
X180732857Y-31877142D01*
X180875714Y-31948571D01*
X180947142Y-32020000D01*
X181018571Y-32162857D01*
X181018571Y-32448571D01*
X180947142Y-32591428D01*
X180875714Y-32662857D01*
X180732857Y-32734285D01*
X180375714Y-32734285D01*
X180232857Y-32662857D01*
X180161428Y-32591428D01*
X180090000Y-32448571D01*
X180090000Y-32162857D01*
X180161428Y-32020000D01*
X180232857Y-31948571D01*
X180375714Y-31877142D01*
X179518571Y-33234285D02*
X179518571Y-34162857D01*
X180090000Y-33662857D01*
X180090000Y-33877142D01*
X180161428Y-34020000D01*
X180232857Y-34091428D01*
X180375714Y-34162857D01*
X180732857Y-34162857D01*
X180875714Y-34091428D01*
X180947142Y-34020000D01*
X181018571Y-33877142D01*
X181018571Y-33448571D01*
X180947142Y-33305714D01*
X180875714Y-33234285D01*
X108398571Y-31805714D02*
X108398571Y-32734285D01*
X108970000Y-32234285D01*
X108970000Y-32448571D01*
X109041428Y-32591428D01*
X109112857Y-32662857D01*
X109255714Y-32734285D01*
X109612857Y-32734285D01*
X109755714Y-32662857D01*
X109827142Y-32591428D01*
X109898571Y-32448571D01*
X109898571Y-32020000D01*
X109827142Y-31877142D01*
X109755714Y-31805714D01*
X108398571Y-34091428D02*
X108398571Y-33377142D01*
X109112857Y-33305714D01*
X109041428Y-33377142D01*
X108970000Y-33520000D01*
X108970000Y-33877142D01*
X109041428Y-34020000D01*
X109112857Y-34091428D01*
X109255714Y-34162857D01*
X109612857Y-34162857D01*
X109755714Y-34091428D01*
X109827142Y-34020000D01*
X109898571Y-33877142D01*
X109898571Y-33520000D01*
X109827142Y-33377142D01*
X109755714Y-33305714D01*
X121598571Y-32591428D02*
X122598571Y-32591428D01*
X121027142Y-32234285D02*
X122098571Y-31877142D01*
X122098571Y-32805714D01*
X121098571Y-33662857D02*
X121098571Y-33805714D01*
X121170000Y-33948571D01*
X121241428Y-34020000D01*
X121384285Y-34091428D01*
X121670000Y-34162857D01*
X122027142Y-34162857D01*
X122312857Y-34091428D01*
X122455714Y-34020000D01*
X122527142Y-33948571D01*
X122598571Y-33805714D01*
X122598571Y-33662857D01*
X122527142Y-33520000D01*
X122455714Y-33448571D01*
X122312857Y-33377142D01*
X122027142Y-33305714D01*
X121670000Y-33305714D01*
X121384285Y-33377142D01*
X121241428Y-33448571D01*
X121170000Y-33520000D01*
X121098571Y-33662857D01*
X32198571Y-33377142D02*
X32198571Y-32662857D01*
X32912857Y-32591428D01*
X32841428Y-32662857D01*
X32770000Y-32805714D01*
X32770000Y-33162857D01*
X32841428Y-33305714D01*
X32912857Y-33377142D01*
X33055714Y-33448571D01*
X33412857Y-33448571D01*
X33555714Y-33377142D01*
X33627142Y-33305714D01*
X33698571Y-33162857D01*
X33698571Y-32805714D01*
X33627142Y-32662857D01*
X33555714Y-32591428D01*
X46398571Y-32734285D02*
X46398571Y-31877142D01*
X46398571Y-32305714D02*
X44898571Y-32305714D01*
X45112857Y-32162857D01*
X45255714Y-32020000D01*
X45327142Y-31877142D01*
X44898571Y-33662857D02*
X44898571Y-33805714D01*
X44970000Y-33948571D01*
X45041428Y-34020000D01*
X45184285Y-34091428D01*
X45470000Y-34162857D01*
X45827142Y-34162857D01*
X46112857Y-34091428D01*
X46255714Y-34020000D01*
X46327142Y-33948571D01*
X46398571Y-33805714D01*
X46398571Y-33662857D01*
X46327142Y-33520000D01*
X46255714Y-33448571D01*
X46112857Y-33377142D01*
X45827142Y-33305714D01*
X45470000Y-33305714D01*
X45184285Y-33377142D01*
X45041428Y-33448571D01*
X44970000Y-33520000D01*
X44898571Y-33662857D01*
X171898571Y-32591428D02*
X171898571Y-32305714D01*
X171970000Y-32162857D01*
X172041428Y-32091428D01*
X172255714Y-31948571D01*
X172541428Y-31877142D01*
X173112857Y-31877142D01*
X173255714Y-31948571D01*
X173327142Y-32020000D01*
X173398571Y-32162857D01*
X173398571Y-32448571D01*
X173327142Y-32591428D01*
X173255714Y-32662857D01*
X173112857Y-32734285D01*
X172755714Y-32734285D01*
X172612857Y-32662857D01*
X172541428Y-32591428D01*
X172470000Y-32448571D01*
X172470000Y-32162857D01*
X172541428Y-32020000D01*
X172612857Y-31948571D01*
X172755714Y-31877142D01*
X171898571Y-33662857D02*
X171898571Y-33805714D01*
X171970000Y-33948571D01*
X172041428Y-34020000D01*
X172184285Y-34091428D01*
X172470000Y-34162857D01*
X172827142Y-34162857D01*
X173112857Y-34091428D01*
X173255714Y-34020000D01*
X173327142Y-33948571D01*
X173398571Y-33805714D01*
X173398571Y-33662857D01*
X173327142Y-33520000D01*
X173255714Y-33448571D01*
X173112857Y-33377142D01*
X172827142Y-33305714D01*
X172470000Y-33305714D01*
X172184285Y-33377142D01*
X172041428Y-33448571D01*
X171970000Y-33520000D01*
X171898571Y-33662857D01*
X134298571Y-32591428D02*
X135298571Y-32591428D01*
X133727142Y-32234285D02*
X134798571Y-31877142D01*
X134798571Y-32805714D01*
X133798571Y-34091428D02*
X133798571Y-33377142D01*
X134512857Y-33305714D01*
X134441428Y-33377142D01*
X134370000Y-33520000D01*
X134370000Y-33877142D01*
X134441428Y-34020000D01*
X134512857Y-34091428D01*
X134655714Y-34162857D01*
X135012857Y-34162857D01*
X135155714Y-34091428D01*
X135227142Y-34020000D01*
X135298571Y-33877142D01*
X135298571Y-33520000D01*
X135227142Y-33377142D01*
X135155714Y-33305714D01*
X70441428Y-31877142D02*
X70370000Y-31948571D01*
X70298571Y-32091428D01*
X70298571Y-32448571D01*
X70370000Y-32591428D01*
X70441428Y-32662857D01*
X70584285Y-32734285D01*
X70727142Y-32734285D01*
X70941428Y-32662857D01*
X71798571Y-31805714D01*
X71798571Y-32734285D01*
X70298571Y-33662857D02*
X70298571Y-33805714D01*
X70370000Y-33948571D01*
X70441428Y-34020000D01*
X70584285Y-34091428D01*
X70870000Y-34162857D01*
X71227142Y-34162857D01*
X71512857Y-34091428D01*
X71655714Y-34020000D01*
X71727142Y-33948571D01*
X71798571Y-33805714D01*
X71798571Y-33662857D01*
X71727142Y-33520000D01*
X71655714Y-33448571D01*
X71512857Y-33377142D01*
X71227142Y-33305714D01*
X70870000Y-33305714D01*
X70584285Y-33377142D01*
X70441428Y-33448571D01*
X70370000Y-33520000D01*
X70298571Y-33662857D01*
X171898571Y-78311428D02*
X171898571Y-78025714D01*
X171970000Y-77882857D01*
X172041428Y-77811428D01*
X172255714Y-77668571D01*
X172541428Y-77597142D01*
X173112857Y-77597142D01*
X173255714Y-77668571D01*
X173327142Y-77740000D01*
X173398571Y-77882857D01*
X173398571Y-78168571D01*
X173327142Y-78311428D01*
X173255714Y-78382857D01*
X173112857Y-78454285D01*
X172755714Y-78454285D01*
X172612857Y-78382857D01*
X172541428Y-78311428D01*
X172470000Y-78168571D01*
X172470000Y-77882857D01*
X172541428Y-77740000D01*
X172612857Y-77668571D01*
X172755714Y-77597142D01*
X171898571Y-79382857D02*
X171898571Y-79525714D01*
X171970000Y-79668571D01*
X172041428Y-79740000D01*
X172184285Y-79811428D01*
X172470000Y-79882857D01*
X172827142Y-79882857D01*
X173112857Y-79811428D01*
X173255714Y-79740000D01*
X173327142Y-79668571D01*
X173398571Y-79525714D01*
X173398571Y-79382857D01*
X173327142Y-79240000D01*
X173255714Y-79168571D01*
X173112857Y-79097142D01*
X172827142Y-79025714D01*
X172470000Y-79025714D01*
X172184285Y-79097142D01*
X172041428Y-79168571D01*
X171970000Y-79240000D01*
X171898571Y-79382857D01*
X159198571Y-78382857D02*
X159198571Y-77668571D01*
X159912857Y-77597142D01*
X159841428Y-77668571D01*
X159770000Y-77811428D01*
X159770000Y-78168571D01*
X159841428Y-78311428D01*
X159912857Y-78382857D01*
X160055714Y-78454285D01*
X160412857Y-78454285D01*
X160555714Y-78382857D01*
X160627142Y-78311428D01*
X160698571Y-78168571D01*
X160698571Y-77811428D01*
X160627142Y-77668571D01*
X160555714Y-77597142D01*
X159198571Y-79811428D02*
X159198571Y-79097142D01*
X159912857Y-79025714D01*
X159841428Y-79097142D01*
X159770000Y-79240000D01*
X159770000Y-79597142D01*
X159841428Y-79740000D01*
X159912857Y-79811428D01*
X160055714Y-79882857D01*
X160412857Y-79882857D01*
X160555714Y-79811428D01*
X160627142Y-79740000D01*
X160698571Y-79597142D01*
X160698571Y-79240000D01*
X160627142Y-79097142D01*
X160555714Y-79025714D01*
X70441428Y-77597142D02*
X70370000Y-77668571D01*
X70298571Y-77811428D01*
X70298571Y-78168571D01*
X70370000Y-78311428D01*
X70441428Y-78382857D01*
X70584285Y-78454285D01*
X70727142Y-78454285D01*
X70941428Y-78382857D01*
X71798571Y-77525714D01*
X71798571Y-78454285D01*
X70298571Y-79382857D02*
X70298571Y-79525714D01*
X70370000Y-79668571D01*
X70441428Y-79740000D01*
X70584285Y-79811428D01*
X70870000Y-79882857D01*
X71227142Y-79882857D01*
X71512857Y-79811428D01*
X71655714Y-79740000D01*
X71727142Y-79668571D01*
X71798571Y-79525714D01*
X71798571Y-79382857D01*
X71727142Y-79240000D01*
X71655714Y-79168571D01*
X71512857Y-79097142D01*
X71227142Y-79025714D01*
X70870000Y-79025714D01*
X70584285Y-79097142D01*
X70441428Y-79168571D01*
X70370000Y-79240000D01*
X70298571Y-79382857D01*
X83141428Y-77597142D02*
X83070000Y-77668571D01*
X82998571Y-77811428D01*
X82998571Y-78168571D01*
X83070000Y-78311428D01*
X83141428Y-78382857D01*
X83284285Y-78454285D01*
X83427142Y-78454285D01*
X83641428Y-78382857D01*
X84498571Y-77525714D01*
X84498571Y-78454285D01*
X82998571Y-79811428D02*
X82998571Y-79097142D01*
X83712857Y-79025714D01*
X83641428Y-79097142D01*
X83570000Y-79240000D01*
X83570000Y-79597142D01*
X83641428Y-79740000D01*
X83712857Y-79811428D01*
X83855714Y-79882857D01*
X84212857Y-79882857D01*
X84355714Y-79811428D01*
X84427142Y-79740000D01*
X84498571Y-79597142D01*
X84498571Y-79240000D01*
X84427142Y-79097142D01*
X84355714Y-79025714D01*
X95698571Y-77525714D02*
X95698571Y-78454285D01*
X96270000Y-77954285D01*
X96270000Y-78168571D01*
X96341428Y-78311428D01*
X96412857Y-78382857D01*
X96555714Y-78454285D01*
X96912857Y-78454285D01*
X97055714Y-78382857D01*
X97127142Y-78311428D01*
X97198571Y-78168571D01*
X97198571Y-77740000D01*
X97127142Y-77597142D01*
X97055714Y-77525714D01*
X95698571Y-79382857D02*
X95698571Y-79525714D01*
X95770000Y-79668571D01*
X95841428Y-79740000D01*
X95984285Y-79811428D01*
X96270000Y-79882857D01*
X96627142Y-79882857D01*
X96912857Y-79811428D01*
X97055714Y-79740000D01*
X97127142Y-79668571D01*
X97198571Y-79525714D01*
X97198571Y-79382857D01*
X97127142Y-79240000D01*
X97055714Y-79168571D01*
X96912857Y-79097142D01*
X96627142Y-79025714D01*
X96270000Y-79025714D01*
X95984285Y-79097142D01*
X95841428Y-79168571D01*
X95770000Y-79240000D01*
X95698571Y-79382857D01*
X108398571Y-77525714D02*
X108398571Y-78454285D01*
X108970000Y-77954285D01*
X108970000Y-78168571D01*
X109041428Y-78311428D01*
X109112857Y-78382857D01*
X109255714Y-78454285D01*
X109612857Y-78454285D01*
X109755714Y-78382857D01*
X109827142Y-78311428D01*
X109898571Y-78168571D01*
X109898571Y-77740000D01*
X109827142Y-77597142D01*
X109755714Y-77525714D01*
X108398571Y-79811428D02*
X108398571Y-79097142D01*
X109112857Y-79025714D01*
X109041428Y-79097142D01*
X108970000Y-79240000D01*
X108970000Y-79597142D01*
X109041428Y-79740000D01*
X109112857Y-79811428D01*
X109255714Y-79882857D01*
X109612857Y-79882857D01*
X109755714Y-79811428D01*
X109827142Y-79740000D01*
X109898571Y-79597142D01*
X109898571Y-79240000D01*
X109827142Y-79097142D01*
X109755714Y-79025714D01*
X32198571Y-79097142D02*
X32198571Y-78382857D01*
X32912857Y-78311428D01*
X32841428Y-78382857D01*
X32770000Y-78525714D01*
X32770000Y-78882857D01*
X32841428Y-79025714D01*
X32912857Y-79097142D01*
X33055714Y-79168571D01*
X33412857Y-79168571D01*
X33555714Y-79097142D01*
X33627142Y-79025714D01*
X33698571Y-78882857D01*
X33698571Y-78525714D01*
X33627142Y-78382857D01*
X33555714Y-78311428D01*
X46398571Y-78454285D02*
X46398571Y-77597142D01*
X46398571Y-78025714D02*
X44898571Y-78025714D01*
X45112857Y-77882857D01*
X45255714Y-77740000D01*
X45327142Y-77597142D01*
X44898571Y-79382857D02*
X44898571Y-79525714D01*
X44970000Y-79668571D01*
X45041428Y-79740000D01*
X45184285Y-79811428D01*
X45470000Y-79882857D01*
X45827142Y-79882857D01*
X46112857Y-79811428D01*
X46255714Y-79740000D01*
X46327142Y-79668571D01*
X46398571Y-79525714D01*
X46398571Y-79382857D01*
X46327142Y-79240000D01*
X46255714Y-79168571D01*
X46112857Y-79097142D01*
X45827142Y-79025714D01*
X45470000Y-79025714D01*
X45184285Y-79097142D01*
X45041428Y-79168571D01*
X44970000Y-79240000D01*
X44898571Y-79382857D01*
X146498571Y-78382857D02*
X146498571Y-77668571D01*
X147212857Y-77597142D01*
X147141428Y-77668571D01*
X147070000Y-77811428D01*
X147070000Y-78168571D01*
X147141428Y-78311428D01*
X147212857Y-78382857D01*
X147355714Y-78454285D01*
X147712857Y-78454285D01*
X147855714Y-78382857D01*
X147927142Y-78311428D01*
X147998571Y-78168571D01*
X147998571Y-77811428D01*
X147927142Y-77668571D01*
X147855714Y-77597142D01*
X146498571Y-79382857D02*
X146498571Y-79525714D01*
X146570000Y-79668571D01*
X146641428Y-79740000D01*
X146784285Y-79811428D01*
X147070000Y-79882857D01*
X147427142Y-79882857D01*
X147712857Y-79811428D01*
X147855714Y-79740000D01*
X147927142Y-79668571D01*
X147998571Y-79525714D01*
X147998571Y-79382857D01*
X147927142Y-79240000D01*
X147855714Y-79168571D01*
X147712857Y-79097142D01*
X147427142Y-79025714D01*
X147070000Y-79025714D01*
X146784285Y-79097142D01*
X146641428Y-79168571D01*
X146570000Y-79240000D01*
X146498571Y-79382857D01*
X134298571Y-78311428D02*
X135298571Y-78311428D01*
X133727142Y-77954285D02*
X134798571Y-77597142D01*
X134798571Y-78525714D01*
X133798571Y-79811428D02*
X133798571Y-79097142D01*
X134512857Y-79025714D01*
X134441428Y-79097142D01*
X134370000Y-79240000D01*
X134370000Y-79597142D01*
X134441428Y-79740000D01*
X134512857Y-79811428D01*
X134655714Y-79882857D01*
X135012857Y-79882857D01*
X135155714Y-79811428D01*
X135227142Y-79740000D01*
X135298571Y-79597142D01*
X135298571Y-79240000D01*
X135227142Y-79097142D01*
X135155714Y-79025714D01*
X59098571Y-78454285D02*
X59098571Y-77597142D01*
X59098571Y-78025714D02*
X57598571Y-78025714D01*
X57812857Y-77882857D01*
X57955714Y-77740000D01*
X58027142Y-77597142D01*
X57598571Y-79811428D02*
X57598571Y-79097142D01*
X58312857Y-79025714D01*
X58241428Y-79097142D01*
X58170000Y-79240000D01*
X58170000Y-79597142D01*
X58241428Y-79740000D01*
X58312857Y-79811428D01*
X58455714Y-79882857D01*
X58812857Y-79882857D01*
X58955714Y-79811428D01*
X59027142Y-79740000D01*
X59098571Y-79597142D01*
X59098571Y-79240000D01*
X59027142Y-79097142D01*
X58955714Y-79025714D01*
X121598571Y-78311428D02*
X122598571Y-78311428D01*
X121027142Y-77954285D02*
X122098571Y-77597142D01*
X122098571Y-78525714D01*
X121098571Y-79382857D02*
X121098571Y-79525714D01*
X121170000Y-79668571D01*
X121241428Y-79740000D01*
X121384285Y-79811428D01*
X121670000Y-79882857D01*
X122027142Y-79882857D01*
X122312857Y-79811428D01*
X122455714Y-79740000D01*
X122527142Y-79668571D01*
X122598571Y-79525714D01*
X122598571Y-79382857D01*
X122527142Y-79240000D01*
X122455714Y-79168571D01*
X122312857Y-79097142D01*
X122027142Y-79025714D01*
X121670000Y-79025714D01*
X121384285Y-79097142D01*
X121241428Y-79168571D01*
X121170000Y-79240000D01*
X121098571Y-79382857D01*
X179518571Y-78311428D02*
X179518571Y-78025714D01*
X179590000Y-77882857D01*
X179661428Y-77811428D01*
X179875714Y-77668571D01*
X180161428Y-77597142D01*
X180732857Y-77597142D01*
X180875714Y-77668571D01*
X180947142Y-77740000D01*
X181018571Y-77882857D01*
X181018571Y-78168571D01*
X180947142Y-78311428D01*
X180875714Y-78382857D01*
X180732857Y-78454285D01*
X180375714Y-78454285D01*
X180232857Y-78382857D01*
X180161428Y-78311428D01*
X180090000Y-78168571D01*
X180090000Y-77882857D01*
X180161428Y-77740000D01*
X180232857Y-77668571D01*
X180375714Y-77597142D01*
X179518571Y-78954285D02*
X179518571Y-79882857D01*
X180090000Y-79382857D01*
X180090000Y-79597142D01*
X180161428Y-79740000D01*
X180232857Y-79811428D01*
X180375714Y-79882857D01*
X180732857Y-79882857D01*
X180875714Y-79811428D01*
X180947142Y-79740000D01*
X181018571Y-79597142D01*
X181018571Y-79168571D01*
X180947142Y-79025714D01*
X180875714Y-78954285D01*
X179518571Y-91011428D02*
X179518571Y-90725714D01*
X179590000Y-90582857D01*
X179661428Y-90511428D01*
X179875714Y-90368571D01*
X180161428Y-90297142D01*
X180732857Y-90297142D01*
X180875714Y-90368571D01*
X180947142Y-90440000D01*
X181018571Y-90582857D01*
X181018571Y-90868571D01*
X180947142Y-91011428D01*
X180875714Y-91082857D01*
X180732857Y-91154285D01*
X180375714Y-91154285D01*
X180232857Y-91082857D01*
X180161428Y-91011428D01*
X180090000Y-90868571D01*
X180090000Y-90582857D01*
X180161428Y-90440000D01*
X180232857Y-90368571D01*
X180375714Y-90297142D01*
X179518571Y-91654285D02*
X179518571Y-92582857D01*
X180090000Y-92082857D01*
X180090000Y-92297142D01*
X180161428Y-92440000D01*
X180232857Y-92511428D01*
X180375714Y-92582857D01*
X180732857Y-92582857D01*
X180875714Y-92511428D01*
X180947142Y-92440000D01*
X181018571Y-92297142D01*
X181018571Y-91868571D01*
X180947142Y-91725714D01*
X180875714Y-91654285D01*
X171898571Y-91011428D02*
X171898571Y-90725714D01*
X171970000Y-90582857D01*
X172041428Y-90511428D01*
X172255714Y-90368571D01*
X172541428Y-90297142D01*
X173112857Y-90297142D01*
X173255714Y-90368571D01*
X173327142Y-90440000D01*
X173398571Y-90582857D01*
X173398571Y-90868571D01*
X173327142Y-91011428D01*
X173255714Y-91082857D01*
X173112857Y-91154285D01*
X172755714Y-91154285D01*
X172612857Y-91082857D01*
X172541428Y-91011428D01*
X172470000Y-90868571D01*
X172470000Y-90582857D01*
X172541428Y-90440000D01*
X172612857Y-90368571D01*
X172755714Y-90297142D01*
X171898571Y-92082857D02*
X171898571Y-92225714D01*
X171970000Y-92368571D01*
X172041428Y-92440000D01*
X172184285Y-92511428D01*
X172470000Y-92582857D01*
X172827142Y-92582857D01*
X173112857Y-92511428D01*
X173255714Y-92440000D01*
X173327142Y-92368571D01*
X173398571Y-92225714D01*
X173398571Y-92082857D01*
X173327142Y-91940000D01*
X173255714Y-91868571D01*
X173112857Y-91797142D01*
X172827142Y-91725714D01*
X172470000Y-91725714D01*
X172184285Y-91797142D01*
X172041428Y-91868571D01*
X171970000Y-91940000D01*
X171898571Y-92082857D01*
X159198571Y-91082857D02*
X159198571Y-90368571D01*
X159912857Y-90297142D01*
X159841428Y-90368571D01*
X159770000Y-90511428D01*
X159770000Y-90868571D01*
X159841428Y-91011428D01*
X159912857Y-91082857D01*
X160055714Y-91154285D01*
X160412857Y-91154285D01*
X160555714Y-91082857D01*
X160627142Y-91011428D01*
X160698571Y-90868571D01*
X160698571Y-90511428D01*
X160627142Y-90368571D01*
X160555714Y-90297142D01*
X159198571Y-92511428D02*
X159198571Y-91797142D01*
X159912857Y-91725714D01*
X159841428Y-91797142D01*
X159770000Y-91940000D01*
X159770000Y-92297142D01*
X159841428Y-92440000D01*
X159912857Y-92511428D01*
X160055714Y-92582857D01*
X160412857Y-92582857D01*
X160555714Y-92511428D01*
X160627142Y-92440000D01*
X160698571Y-92297142D01*
X160698571Y-91940000D01*
X160627142Y-91797142D01*
X160555714Y-91725714D01*
X146498571Y-91082857D02*
X146498571Y-90368571D01*
X147212857Y-90297142D01*
X147141428Y-90368571D01*
X147070000Y-90511428D01*
X147070000Y-90868571D01*
X147141428Y-91011428D01*
X147212857Y-91082857D01*
X147355714Y-91154285D01*
X147712857Y-91154285D01*
X147855714Y-91082857D01*
X147927142Y-91011428D01*
X147998571Y-90868571D01*
X147998571Y-90511428D01*
X147927142Y-90368571D01*
X147855714Y-90297142D01*
X146498571Y-92082857D02*
X146498571Y-92225714D01*
X146570000Y-92368571D01*
X146641428Y-92440000D01*
X146784285Y-92511428D01*
X147070000Y-92582857D01*
X147427142Y-92582857D01*
X147712857Y-92511428D01*
X147855714Y-92440000D01*
X147927142Y-92368571D01*
X147998571Y-92225714D01*
X147998571Y-92082857D01*
X147927142Y-91940000D01*
X147855714Y-91868571D01*
X147712857Y-91797142D01*
X147427142Y-91725714D01*
X147070000Y-91725714D01*
X146784285Y-91797142D01*
X146641428Y-91868571D01*
X146570000Y-91940000D01*
X146498571Y-92082857D01*
X134298571Y-91011428D02*
X135298571Y-91011428D01*
X133727142Y-90654285D02*
X134798571Y-90297142D01*
X134798571Y-91225714D01*
X133798571Y-92511428D02*
X133798571Y-91797142D01*
X134512857Y-91725714D01*
X134441428Y-91797142D01*
X134370000Y-91940000D01*
X134370000Y-92297142D01*
X134441428Y-92440000D01*
X134512857Y-92511428D01*
X134655714Y-92582857D01*
X135012857Y-92582857D01*
X135155714Y-92511428D01*
X135227142Y-92440000D01*
X135298571Y-92297142D01*
X135298571Y-91940000D01*
X135227142Y-91797142D01*
X135155714Y-91725714D01*
X121598571Y-91011428D02*
X122598571Y-91011428D01*
X121027142Y-90654285D02*
X122098571Y-90297142D01*
X122098571Y-91225714D01*
X121098571Y-92082857D02*
X121098571Y-92225714D01*
X121170000Y-92368571D01*
X121241428Y-92440000D01*
X121384285Y-92511428D01*
X121670000Y-92582857D01*
X122027142Y-92582857D01*
X122312857Y-92511428D01*
X122455714Y-92440000D01*
X122527142Y-92368571D01*
X122598571Y-92225714D01*
X122598571Y-92082857D01*
X122527142Y-91940000D01*
X122455714Y-91868571D01*
X122312857Y-91797142D01*
X122027142Y-91725714D01*
X121670000Y-91725714D01*
X121384285Y-91797142D01*
X121241428Y-91868571D01*
X121170000Y-91940000D01*
X121098571Y-92082857D01*
X108398571Y-90225714D02*
X108398571Y-91154285D01*
X108970000Y-90654285D01*
X108970000Y-90868571D01*
X109041428Y-91011428D01*
X109112857Y-91082857D01*
X109255714Y-91154285D01*
X109612857Y-91154285D01*
X109755714Y-91082857D01*
X109827142Y-91011428D01*
X109898571Y-90868571D01*
X109898571Y-90440000D01*
X109827142Y-90297142D01*
X109755714Y-90225714D01*
X108398571Y-92511428D02*
X108398571Y-91797142D01*
X109112857Y-91725714D01*
X109041428Y-91797142D01*
X108970000Y-91940000D01*
X108970000Y-92297142D01*
X109041428Y-92440000D01*
X109112857Y-92511428D01*
X109255714Y-92582857D01*
X109612857Y-92582857D01*
X109755714Y-92511428D01*
X109827142Y-92440000D01*
X109898571Y-92297142D01*
X109898571Y-91940000D01*
X109827142Y-91797142D01*
X109755714Y-91725714D01*
X95698571Y-90225714D02*
X95698571Y-91154285D01*
X96270000Y-90654285D01*
X96270000Y-90868571D01*
X96341428Y-91011428D01*
X96412857Y-91082857D01*
X96555714Y-91154285D01*
X96912857Y-91154285D01*
X97055714Y-91082857D01*
X97127142Y-91011428D01*
X97198571Y-90868571D01*
X97198571Y-90440000D01*
X97127142Y-90297142D01*
X97055714Y-90225714D01*
X95698571Y-92082857D02*
X95698571Y-92225714D01*
X95770000Y-92368571D01*
X95841428Y-92440000D01*
X95984285Y-92511428D01*
X96270000Y-92582857D01*
X96627142Y-92582857D01*
X96912857Y-92511428D01*
X97055714Y-92440000D01*
X97127142Y-92368571D01*
X97198571Y-92225714D01*
X97198571Y-92082857D01*
X97127142Y-91940000D01*
X97055714Y-91868571D01*
X96912857Y-91797142D01*
X96627142Y-91725714D01*
X96270000Y-91725714D01*
X95984285Y-91797142D01*
X95841428Y-91868571D01*
X95770000Y-91940000D01*
X95698571Y-92082857D01*
X83141428Y-90297142D02*
X83070000Y-90368571D01*
X82998571Y-90511428D01*
X82998571Y-90868571D01*
X83070000Y-91011428D01*
X83141428Y-91082857D01*
X83284285Y-91154285D01*
X83427142Y-91154285D01*
X83641428Y-91082857D01*
X84498571Y-90225714D01*
X84498571Y-91154285D01*
X82998571Y-92511428D02*
X82998571Y-91797142D01*
X83712857Y-91725714D01*
X83641428Y-91797142D01*
X83570000Y-91940000D01*
X83570000Y-92297142D01*
X83641428Y-92440000D01*
X83712857Y-92511428D01*
X83855714Y-92582857D01*
X84212857Y-92582857D01*
X84355714Y-92511428D01*
X84427142Y-92440000D01*
X84498571Y-92297142D01*
X84498571Y-91940000D01*
X84427142Y-91797142D01*
X84355714Y-91725714D01*
X70441428Y-90297142D02*
X70370000Y-90368571D01*
X70298571Y-90511428D01*
X70298571Y-90868571D01*
X70370000Y-91011428D01*
X70441428Y-91082857D01*
X70584285Y-91154285D01*
X70727142Y-91154285D01*
X70941428Y-91082857D01*
X71798571Y-90225714D01*
X71798571Y-91154285D01*
X70298571Y-92082857D02*
X70298571Y-92225714D01*
X70370000Y-92368571D01*
X70441428Y-92440000D01*
X70584285Y-92511428D01*
X70870000Y-92582857D01*
X71227142Y-92582857D01*
X71512857Y-92511428D01*
X71655714Y-92440000D01*
X71727142Y-92368571D01*
X71798571Y-92225714D01*
X71798571Y-92082857D01*
X71727142Y-91940000D01*
X71655714Y-91868571D01*
X71512857Y-91797142D01*
X71227142Y-91725714D01*
X70870000Y-91725714D01*
X70584285Y-91797142D01*
X70441428Y-91868571D01*
X70370000Y-91940000D01*
X70298571Y-92082857D01*
X59098571Y-91154285D02*
X59098571Y-90297142D01*
X59098571Y-90725714D02*
X57598571Y-90725714D01*
X57812857Y-90582857D01*
X57955714Y-90440000D01*
X58027142Y-90297142D01*
X57598571Y-92511428D02*
X57598571Y-91797142D01*
X58312857Y-91725714D01*
X58241428Y-91797142D01*
X58170000Y-91940000D01*
X58170000Y-92297142D01*
X58241428Y-92440000D01*
X58312857Y-92511428D01*
X58455714Y-92582857D01*
X58812857Y-92582857D01*
X58955714Y-92511428D01*
X59027142Y-92440000D01*
X59098571Y-92297142D01*
X59098571Y-91940000D01*
X59027142Y-91797142D01*
X58955714Y-91725714D01*
X46398571Y-91154285D02*
X46398571Y-90297142D01*
X46398571Y-90725714D02*
X44898571Y-90725714D01*
X45112857Y-90582857D01*
X45255714Y-90440000D01*
X45327142Y-90297142D01*
X44898571Y-92082857D02*
X44898571Y-92225714D01*
X44970000Y-92368571D01*
X45041428Y-92440000D01*
X45184285Y-92511428D01*
X45470000Y-92582857D01*
X45827142Y-92582857D01*
X46112857Y-92511428D01*
X46255714Y-92440000D01*
X46327142Y-92368571D01*
X46398571Y-92225714D01*
X46398571Y-92082857D01*
X46327142Y-91940000D01*
X46255714Y-91868571D01*
X46112857Y-91797142D01*
X45827142Y-91725714D01*
X45470000Y-91725714D01*
X45184285Y-91797142D01*
X45041428Y-91868571D01*
X44970000Y-91940000D01*
X44898571Y-92082857D01*
X32198571Y-91797142D02*
X32198571Y-91082857D01*
X32912857Y-91011428D01*
X32841428Y-91082857D01*
X32770000Y-91225714D01*
X32770000Y-91582857D01*
X32841428Y-91725714D01*
X32912857Y-91797142D01*
X33055714Y-91868571D01*
X33412857Y-91868571D01*
X33555714Y-91797142D01*
X33627142Y-91725714D01*
X33698571Y-91582857D01*
X33698571Y-91225714D01*
X33627142Y-91082857D01*
X33555714Y-91011428D01*
M02*
