M48
; DRILL file {KiCad (5.1.5)-3} date 6/5/2020 2:31:47 PM
; FORMAT={-:-/ absolute / inch / decimal}
; #@! TF.CreationDate,2020-06-05T14:31:47+02:00
; #@! TF.GenerationSoftware,Kicad,Pcbnew,(5.1.5)-3
; #@! TF.FileFunction,Plated,1,2,PTH
FMAT,2
INCH
T1C0.0300
%
G90
G05
T1
X2.6Y-3.0
X1.3Y-3.0
X3.6Y-3.3
X1.4Y-3.2
X2.1Y-1.0
X3.2Y-4.0
X0.9Y-3.7
X2.5Y-1.7
X2.8Y-2.5
X6.2Y-3.7
X6.5Y-2.2
X7.0Y-1.6
X4.1Y-2.8
X1.8Y-2.7
X4.5Y-3.3
X1.1Y-3.3
X2.2Y-0.9
X3.5Y-4.1
X1.2Y-3.9
X6.1Y-2.2
X2.8Y-1.4
X3.9Y-2.3
X6.0Y-3.7
X6.7Y-2.3
X6.5Y-1.6
X3.0Y-2.7
X1.3Y-2.9
X4.9Y-3.4
X1.5Y-3.5
X3.1Y-1.1
X4.4Y-4.0
X1.2Y-3.8
X6.8Y-2.3
X1.7Y-1.5
X2.7Y-2.1
X6.9Y-4.0
X5.7Y-1.5
X1.3Y-1.5
X2.9Y-2.5
X2.9Y-3.0
X4.3Y-3.3
X1.2Y-3.3
X3.0Y-1.1
X5.6Y-1.4
X4.3Y-3.8
X1.2Y-4.0
X4.8Y-2.4
X2.2Y-1.6
X7.0Y-4.1
X6.5Y-2.3
X1.1Y-1.6
X6.9Y-1.4
X3.2Y-2.5
X3.3Y-2.9
X5.4Y-3.3
X1.9Y-3.5
X3.1Y-0.9
X4.4Y-1.5
X4.2Y-3.8
X2.1Y-3.7
X5.2Y-2.3
X7.0Y-3.7
X5.8Y-1.4
X2.0Y-1.7
X6.2Y-1.7
X3.6Y-2.4
X4.0Y-3.0
X4.2Y-3.3
X1.8Y-3.2
X5.6Y-1.1
X4.5Y-1.1
X3.0Y-1.8
X4.4Y-3.8
X1.7Y-3.9
X4.9Y-2.7
X4.6Y-2.1
X1.1Y-2.2
X7.1Y-1.4
X3.3Y-1.7
X4.0Y-1.7
X1.3Y-1.7
X6.4Y-1.7
X3.9Y-2.2
X1.2Y-2.8
X6.9Y-3.3
X1.4Y-3.5
X4.8Y-1.1
X3.3Y-0.9
X3.8Y-1.8
X4.9Y-4.1
X2.5Y-4.0
X1.8Y-3.9
X5.0Y-3.0
X5.8Y-2.3
X2.4Y-2.4
X5.1Y-4.1
X6.2Y-2.4
X3.0Y-1.4
X2.2Y-1.8
X6.8Y-1.6
X4.4Y-2.5
X5.5Y-1.4
X3.1Y-2.9
X5.8Y-3.2
X2.3Y-3.3
X5.3Y-1.1
X4.4Y-1.1
X5.6Y-3.7
X2.2Y-3.8
X2.0Y-3.7
X6.4Y-3.0
X5.3Y-2.4
X1.3Y-2.5
X5.0Y-4.1
X3.1Y-1.5
X6.5Y-1.4
X3.8Y-2.1
X5.2Y-1.6
X2.2Y-2.7
X4.9Y-3.2
X2.5Y-3.3
X5.4Y-1.0
X4.2Y-0.9
X4.6Y-4.0
X2.4Y-4.0
X1.9Y-3.7
X4.4Y-3.0
X5.8Y-2.1
X1.5Y-2.1
X5.1Y-3.7
X3.9Y-2.4
X2.9Y-2.8
X6.2Y-3.3
X3.8Y-3.4
X5.0Y-1.2
X3.8Y-0.9
X5.5Y-3.9
X2.7Y-3.8
X1.4Y-4.1
X4.7Y-3.0
X5.8Y-2.4
X1.4Y-2.4
X1.3Y-2.4
X5.4Y-4.1
X3.9Y-2.5
X3.1Y-2.8
X6.7Y-3.2
X2.6Y-3.2
X5.2Y-0.9
X4.1Y-1.0
X1.3Y-1.0
X4.7Y-1.4
X4.9Y-3.9
X2.8Y-4.1
X6.5Y-2.9
X5.6Y-2.3
X2.2Y-2.2
X1.4Y-2.2
X5.5Y-4.0
X5.0Y-2.2
X3.8Y-2.7
X6.7Y-3.5
X2.3Y-3.2
X6.5Y-1.1
X3.6Y-0.9
X2.0Y-0.9
X6.1Y-1.4
X4.1Y-1.7
X2.9Y-3.9
X5.9Y-3.0
X5.4Y-2.1
X2.2Y-2.3
X5.8Y-3.7
X1.8Y-1.5
X4.4Y-2.3
X2.7Y-2.9
X6.8Y-3.5
X4.5Y-3.4
X6.8Y-1.1
X3.6Y-1.0
X1.7Y-1.0
X5.2Y-1.8
X4.4Y-1.7
X4.1Y-1.5
X3.6Y-3.7
X6.0Y-2.7
X2.1Y-2.5
X6.3Y-3.9
X6.1Y-1.6
X2.0Y-1.4
X5.3Y-3.0
X5.9Y-3.3
X3.5Y-3.2
X6.9Y-1.1
X1.7Y-1.1
X3.3Y-1.6
X3.5Y-1.4
X3.9Y-3.7
X6.9Y-2.7
X2.7Y-2.3
X6.2Y-4.1
X4.9Y-1.5
X1.4Y-1.6
X4.2Y-2.8
X1.4Y-2.9
X6.5Y-3.2
X3.9Y-3.3
X6.4Y-0.9
X2.6Y-1.0
X4.4Y-1.8
X3.4Y-3.9
X5.9Y-2.7
X2.2Y-1.5
X2.9Y-2.1
X5.8Y-4.1
X7.1Y-2.1
X1.6Y-1.5
X3.7Y-2.8
X1.1Y-2.8
X3.7Y-3.4
X6.8Y-1.2
X2.5Y-0.9
X3.5Y-4.0
X4.8Y-2.7
X2.7Y-1.5
X2.8Y-2.3
X7.1Y-3.7
X6.4Y-2.5
X1.3Y-1.8
X4.4Y-2.9
X1.1Y-3.0
X4.4Y-3.4
X1.4Y-3.4
X2.1Y-1.1
X3.5Y-3.7
X1.0Y-3.9
X3.2Y-1.4
X3.8Y-2.2
X6.6Y-4.1
X7.0Y-2.4
X1.1Y-1.4
X4.2Y-3.0
X2.0Y-2.8
X3.6Y-3.5
X1.6Y-3.2
X2.4Y-1.1
X3.7Y-4.0
X1.1Y-3.7
X6.4Y-2.3
X2.6Y-1.7
X3.2Y-2.1
X6.4Y-4.0
X6.1Y-2.5
X1.0Y-1.4
X3.9Y-2.1
X3.9Y-2.7
X1.8Y-2.8
X5.0Y-3.5
X1.3Y-3.2
X2.5Y-1.2
X4.0Y-4.1
X1.3Y-4.0
X6.6Y-2.5
X2.5Y-1.5
X2.5Y-2.4
X6.9Y-4.1
X5.4Y-1.4
X1.0Y-1.5
X3.5Y-2.2
X1.6Y-2.7
X5.6Y-3.2
X5.9Y-1.1
X2.5Y-1.1
X5.1Y-1.4
X4.3Y-4.1
X1.2Y-4.1
X4.9Y-2.3
X2.1Y-1.7
X7.1Y-4.1
X6.4Y-2.2
X0.9Y-1.6
X6.5Y-1.5
X3.5Y-2.5
X2.4Y-2.8
X5.7Y-3.3
X2.3Y-3.4
X3.0Y-0.9
X4.3Y-1.5
X3.9Y-4.1
X1.8Y-4.0
X4.9Y-2.5
X1.3Y-2.1
X5.6Y-1.8
X2.8Y-1.6
X0.9Y-1.7
X5.8Y-1.8
X3.7Y-2.4
X2.8Y-2.7
X4.1Y-3.3
X2.6Y-3.3
X4.7Y-0.9
X3.2Y-1.1
X3.7Y-1.7
X4.3Y-3.7
X1.8Y-4.1
X4.9Y-3.0
X5.5Y-2.1
X1.1Y-2.1
X7.1Y-2.2
X3.3Y-1.8
X3.9Y-1.6
X6.3Y-1.7
X3.0Y-2.4
X2.3Y-2.8
X4.4Y-3.5
X2.0Y-3.4
X4.7Y-1.1
X3.1Y-1.0
X1.2Y-1.2
X3.2Y-1.7
X4.6Y-4.1
X2.5Y-4.1
X1.8Y-3.8
X4.5Y-3.0
X6.4Y-2.1
X2.0Y-2.1
X4.8Y-3.8
X5.9Y-1.6
X3.8Y-1.5
X2.8Y-1.8
X6.0Y-1.8
X4.5Y-2.1
X4.9Y-1.8
X2.5Y-2.8
X4.3Y-3.5
X3.2Y-3.2
X5.0Y-0.9
X3.7Y-1.0
X5.1Y-3.9
X2.2Y-4.0
X2.0Y-3.8
X5.1Y-3.0
X5.7Y-2.5
X2.3Y-2.3
X5.3Y-4.1
X3.1Y-1.6
X7.0Y-1.7
X5.2Y-2.2
X5.6Y-1.7
X2.6Y-2.9
X5.1Y-3.5
X1.5Y-3.2
X5.7Y-1.0
X4.6Y-1.2
X5.0Y-3.9
X3.4Y-3.7
X2.1Y-4.0
X5.7Y-2.7
X5.1Y-2.5
X1.8Y-2.3
X2.0Y-2.3
X5.4Y-3.8
X4.4Y-2.2
X2.9Y-2.7
X6.0Y-3.3
X2.9Y-3.4
X5.3Y-0.9
X3.6Y-1.2
X1.2Y-1.0
X4.6Y-3.8
X2.7Y-3.7
X2.1Y-3.8
X6.2Y-2.8
X5.4Y-2.5
X1.7Y-2.3
X1.1Y-2.5
X5.6Y-3.8
X4.3Y-2.2
X3.7Y-3.0
X6.3Y-3.4
X2.9Y-3.3
X6.7Y-1.1
X4.5Y-0.9
X1.3Y-1.1
X5.0Y-1.6
X4.6Y-3.9
X2.8Y-4.0
X6.6Y-3.0
X5.3Y-2.3
X1.9Y-2.1
X2.4Y-2.1
X6.8Y-3.8
X2.1Y-1.4
X4.4Y-2.1
X4.0Y-2.7
X6.2Y-3.4
X4.0Y-3.5
X6.3Y-1.1
X4.9Y-0.9
X1.9Y-1.2
X5.2Y-1.4
X3.9Y-1.8
X3.2Y-3.7
X1.0Y-3.7
X5.0Y-2.5
X2.1Y-2.2
X5.8Y-3.8
X1.2Y-1.8
X4.7Y-2.3
X4.2Y-2.9
X5.9Y-3.4
X3.2Y-3.3
X6.9Y-0.9
X3.5Y-0.9
X2.0Y-1.0
X4.6Y-1.4
X4.2Y-1.4
X3.0Y-1.7
X3.3Y-4.1
X6.5Y-2.8
X2.2Y-2.1
X6.9Y-3.7
X6.4Y-1.6
X1.9Y-1.7
X4.1Y-2.7
X6.3Y-3.3
X4.1Y-3.4
X6.8Y-0.9
X1.9Y-0.9
X4.6Y-1.6
X4.1Y-1.8
X3.4Y-4.0
X5.5Y-3.0
X3.6Y-2.2
X6.9Y-3.8
X5.4Y-1.8
X1.7Y-1.7
X5.5Y-2.7
X1.9Y-2.9
X6.9Y-3.2
X3.1Y-3.5
X6.6Y-1.1
X3.2Y-1.0
X4.2Y-1.5
X3.0Y-4.1
X6.8Y-3.0
X3.6Y-1.6
X3.4Y-2.1
X6.3Y-3.8
X6.2Y-2.1
X1.7Y-1.8
X3.6Y-2.7
X2.4Y-2.9
X4.2Y-3.4
X6.0Y-0.9
X2.9Y-1.2
X3.8Y-3.9
X5.3Y-2.7
X3.5Y-1.6
X2.6Y-2.2
X7.0Y-3.8
X6.3Y-2.1
X2.3Y-1.4
X3.6Y-2.8
X1.7Y-2.8
X4.4Y-3.3
X1.5Y-3.3
X3.2Y-0.9
X3.4Y-4.1
X1.4Y-3.7
X2.3Y-1.8
X3.0Y-2.3
X6.1Y-4.0
X6.9Y-2.5
X6.9Y-1.7
X6.0Y-2.9
X1.5Y-2.7
X5.5Y-3.3
X1.8Y-3.4
X2.6Y-0.9
X3.1Y-3.7
X1.2Y-3.7
X6.3Y-2.3
X2.6Y-1.4
X4.0Y-2.4
X6.8Y-3.9
X6.3Y-2.4
X6.7Y-1.4
X3.3Y-2.4
X5.1Y-2.9
X1.8Y-3.0
X5.7Y-3.4
X1.9Y-3.4
X2.8Y-1.2
X4.9Y-1.7
X3.8Y-4.1
X1.1Y-4.0
X5.5Y-2.3
X3.6Y-1.4
X3.6Y-2.5
X7.1Y-3.8
X6.9Y-2.2
X7.1Y-1.5
X6.6Y-1.6
X3.0Y-2.1
X1.3Y-2.8
X4.1Y-3.2
X6.8Y-1.0
X3.6Y-1.1
X5.5Y-1.6
X4.2Y-4.1
X1.5Y-3.9
X5.1Y-2.4
X1.1Y-2.3
X4.8Y-1.5
X1.5Y-1.6
X5.3Y-1.7
X3.2Y-2.4
X3.0Y-2.9
X4.8Y-3.4
X1.8Y-3.3
X5.8Y-0.9
X2.6Y-1.2
X3.8Y-1.4
X4.1Y-1.4
X4.3Y-4.0
X1.7Y-4.0
X4.2Y-2.7
X5.2Y-2.5
X0.9Y-2.2
X6.8Y-2.1
X3.2Y-1.6
X0.9Y-1.8
X6.2Y-1.4
X3.8Y-2.3
X2.3Y-2.7
X3.7Y-3.3
X1.7Y-3.3
X5.6Y-1.2
X3.3Y-1.2
X3.2Y-1.5
X4.4Y-4.1
X1.5Y-4.1
X4.8Y-2.8
X4.7Y-2.5
X1.3Y-2.3
X6.6Y-2.4
X2.9Y-1.6
X2.5Y-1.4
X6.5Y-1.7
X5.1Y-2.2
X2.5Y-2.9
X5.1Y-3.2
X2.5Y-3.5
X5.6Y-0.9
X3.4Y-1.2
X3.1Y-1.7
X5.2Y-3.8
X2.5Y-3.8
X1.8Y-3.7
X5.1Y-2.7
X6.0Y-2.4
X2.0Y-2.4
X5.0Y-4.0
X6.9Y-2.4
X3.1Y-1.4
X3.4Y-1.5
X6.4Y-1.8
X5.3Y-2.1
X5.0Y-1.7
X2.6Y-2.8
X4.7Y-3.4
X3.3Y-3.4
X5.5Y-1.1
X4.4Y-1.0
X5.2Y-3.9
X2.6Y-3.9
X2.4Y-3.7
X5.2Y-3.0
X5.7Y-2.4
X2.3Y-2.1
X5.4Y-3.9
X2.4Y-1.5
X6.4Y-1.5
X4.2Y-2.5
X5.8Y-1.6
X3.9Y-3.0
X6.6Y-3.3
X1.2Y-3.5
X5.3Y-1.0
X5.5Y-0.9
X5.6Y-4.0
X2.6Y-3.8
X2.3Y-3.7
X4.9Y-2.9
X5.3Y-2.2
X1.4Y-2.5
X1.2Y-2.5
X5.4Y-3.7
X4.8Y-2.1
X4.5Y-2.9
X5.8Y-3.5
X2.5Y-3.2
X5.4Y-1.2
X4.2Y-1.1
X5.2Y-4.1
X3.1Y-3.9
X5.6Y-3.0
X4.9Y-2.2
X1.6Y-2.5
X0.9Y-2.1
X5.7Y-4.0
X4.9Y-2.4
X3.0Y-2.8
X6.0Y-3.5
X2.7Y-3.4
X6.2Y-1.0
X3.9Y-1.1
X1.4Y-1.0
X4.8Y-1.6
X4.7Y-3.9
X2.8Y-3.8
X5.7Y-3.0
X5.6Y-2.2
X2.3Y-2.4
X1.5Y-2.3
X7.1Y-3.9
X1.2Y-1.6
X4.2Y-2.3
X4.1Y-3.0
X6.5Y-3.3
X3.7Y-3.2
X6.1Y-1.0
X3.7Y-1.1
X1.8Y-1.0
X4.9Y-1.6
X4.2Y-1.7
X2.9Y-4.1
X6.1Y-2.9
X6.6Y-2.2
X2.2Y-2.5
X5.8Y-4.0
X1.6Y-1.8
X4.5Y-2.2
X2.4Y-2.7
X6.1Y-3.2
X4.1Y-3.5
X6.0Y-1.0
X1.6Y-1.2
X5.1Y-1.6
X4.3Y-1.8
X3.0Y-3.8
X6.5Y-2.7
X2.5Y-2.1
X6.6Y-3.7
X5.8Y-1.7
X1.7Y-1.6
X5.0Y-2.9
X6.9Y-3.5
X6.6Y-3.4
X2.3Y-3.5
X5.9Y-0.9
X1.7Y-1.2
X3.8Y-1.7
X3.1Y-4.1
X0.9Y-4.1
X3.6Y-2.1
X6.2Y-3.9
X6.1Y-1.7
X1.4Y-1.5
X4.7Y-2.8
X1.4Y-2.7
X5.4Y-3.2
X3.5Y-3.4
X6.5Y-0.9
X2.7Y-1.2
X3.3Y-3.9
X6.7Y-2.8
X2.6Y-1.6
X2.5Y-2.3
X6.1Y-3.9
X6.6Y-2.3
X1.5Y-1.8
X3.6Y-2.9
X1.4Y-3.0
X3.0Y-3.2
X1.4Y-3.3
X2.4Y-1.2
X4.0Y-3.7
X0.9Y-3.8
X2.2Y-1.7
X3.4Y-2.2
X6.8Y-4.0
X6.2Y-2.3
X4.9Y-2.8
X1.3Y-2.7
X3.9Y-3.2
X1.2Y-3.4
X2.8Y-0.9
X3.7Y-3.8
X1.0Y-4.0
X6.5Y-2.5
X2.1Y-1.5
X3.7Y-2.1
X6.4Y-4.1
X6.5Y-2.4
X1.2Y-1.5
X4.5Y-2.7
X1.5Y-2.9
X3.8Y-3.5
X1.1Y-3.5
X2.9Y-1.1
X4.1Y-4.1
X1.4Y-3.9
X6.3Y-2.2
X1.8Y-1.8
X2.6Y-2.4
X6.1Y-4.1
X5.6Y-1.5
X7.0Y-1.4
X2.7Y-2.4
X1.2Y-2.7
X3.5Y-3.5
X6.2Y-0.9
X2.1Y-1.2
X4.7Y-1.6
X4.2Y-3.9
X1.5Y-3.8
X5.2Y-2.4
X2.7Y-1.8
X3.1Y-2.2
X7.0Y-4.0
X5.7Y-1.4
X6.9Y-1.6
X6.1Y-1.8
X3.1Y-2.5
X1.7Y-2.7
X3.6Y-3.2
X1.5Y-3.4
X2.7Y-1.1
X4.6Y-1.5
X4.1Y-3.9
X1.3Y-3.7
X4.6Y-2.4
X7.1Y-4.0
X5.5Y-1.8
X1.3Y-1.4
X6.7Y-1.6
X3.5Y-2.4
X3.2Y-2.9
X5.5Y-3.2
X1.9Y-3.3
X5.0Y-1.0
X3.3Y-1.0
X4.7Y-1.5
X4.2Y-1.8
X4.0Y-3.8
X1.7Y-4.1
X4.7Y-2.9
X4.9Y-2.1
X0.9Y-2.4
X7.0Y-2.3
X3.4Y-1.4
X1.1Y-1.7
X6.8Y-1.4
X3.7Y-2.3
X1.9Y-3.0
X3.9Y-3.4
X1.3Y-3.4
X5.6Y-1.0
X3.5Y-1.0
X3.5Y-1.7
X4.5Y-4.1
X1.6Y-3.8
X5.3Y-2.8
X4.6Y-2.2
X2.0Y-2.2
X4.7Y-1.7
X3.0Y-1.5
X2.5Y-1.8
X6.2Y-1.8
X3.3Y-2.3
X2.4Y-3.0
X4.5Y-3.5
X2.1Y-3.5
X5.1Y-1.0
X3.8Y-1.0
X4.0Y-1.5
X5.3Y-3.7
X2.2Y-3.7
X1.9Y-4.1
X4.3Y-3.0
X5.9Y-2.5
X1.7Y-2.5
X5.6Y-3.9
X7.1Y-2.4
X4.0Y-1.4
X2.7Y-1.6
X6.6Y-1.4
X4.1Y-2.5
X5.0Y-1.8
X2.9Y-2.9
X5.3Y-3.3
X2.4Y-3.5
X4.9Y-1.1
X4.4Y-1.2
X1.1Y-0.9
X4.5Y-4.0
X2.4Y-4.1
X2.4Y-3.9
X6.8Y-2.7
X5.8Y-2.2
X2.0Y-2.5
X5.6Y-4.1
X4.2Y-2.1
X6.4Y-1.4
X2.3Y-3.0
X5.2Y-3.2
X2.0Y-3.5
X4.8Y-0.9
X3.7Y-0.9
X5.2Y-4.0
X2.6Y-4.0
X2.1Y-3.9
X6.0Y-2.8
X5.6Y-2.5
X1.6Y-2.4
X1.4Y-2.3
X5.5Y-4.1
X4.1Y-2.2
X3.5Y-2.8
X6.2Y-3.5
X3.3Y-3.2
X5.7Y-1.2
X4.3Y-0.9
X4.8Y-4.0
X3.3Y-4.0
X6.1Y-2.8
X5.7Y-2.2
X1.8Y-2.4
X0.9Y-2.3
X6.4Y-3.7
X3.5Y-2.1
X3.2Y-3.0
X6.3Y-3.2
X3.4Y-3.2
X6.2Y-1.1
X3.9Y-0.9
X1.5Y-1.1
X5.5Y-1.5
X4.5Y-3.8
X3.0Y-3.9
X6.8Y-2.9
X5.4Y-2.2
X1.5Y-2.4
X1.8Y-2.1
X5.9Y-3.9
X1.1Y-1.8
X4.1Y-2.3
X3.8Y-2.8
X6.2Y-3.2
X3.6Y-3.4
X6.1Y-1.1
X3.5Y-1.2
X1.3Y-0.9
X5.9Y-1.8
X4.0Y-1.8
X3.6Y-3.8
X6.3Y-2.7
X1.8Y-2.5
X6.6Y-3.8
X0.9Y-1.5
X4.3Y-2.4
X3.9Y-2.8
X5.5Y-3.5
X2.7Y-3.5
X6.7Y-1.0
X1.8Y-1.1
X4.5Y-1.7
X3.4Y-1.7
X3.8Y-3.8
X5.4Y-2.7
X2.4Y-2.3
X6.0Y-4.1
X5.9Y-1.4
X1.0Y-1.8
X3.7Y-2.9
X1.5Y-2.8
X6.0Y-3.2
X2.4Y-3.2
X6.3Y-0.9
X1.8Y-1.2
X3.8Y-1.6
X4.0Y-4.0
X6.1Y-3.0
X3.3Y-2.5
X5.9Y-3.7
X5.8Y-2.5
X2.4Y-1.7
X5.4Y-2.8
X1.2Y-2.9
X4.8Y-3.2
X3.8Y-3.2
X1.2Y-3.2
X2.7Y-0.9
X4.0Y-3.9
X5.9Y-2.8
X2.5Y-1.6
X2.5Y-2.5
X5.9Y-4.0
X6.2Y-2.2
X2.0Y-1.8
X3.3Y-3.0
X1.2Y-3.0
X3.4Y-3.5
X6.9Y-1.2
X2.5Y-1.0
X3.0Y-4.0
X6.9Y-3.0
X2.3Y-1.5
X2.9Y-2.2
X6.3Y-4.1
X5.9Y-2.4
X3.6Y-3.0
X1.9Y-2.8
X5.3Y-3.5
X2.1Y-3.4
X2.4Y-0.9
X3.1Y-4.0
X1.5Y-4.0
X6.0Y-2.1
X2.3Y-1.7
X2.8Y-2.4
X6.7Y-4.0
X6.9Y-2.1
X6.6Y-1.7
X5.1Y-2.8
X2.0Y-2.9
X4.2Y-3.5
X2.0Y-3.3
X2.3Y-1.1
X4.2Y-3.7
X1.1Y-3.8
X6.1Y-2.3
X1.5Y-1.7
X3.1Y-2.3
X1.0Y-2.3
X6.8Y-1.8
X7.1Y-1.7
X2.9Y-2.4
X2.1Y-2.7
X4.8Y-3.5
X6.5Y-1.0
X1.9Y-1.0
X5.0Y-1.4
X4.5Y-3.7
X1.1Y-4.1
X5.2Y-2.1
X1.9Y-1.8
X3.1Y-2.1
X6.7Y-3.7
X7.1Y-2.5
X7.1Y-1.8
X6.2Y-1.5
X3.0Y-2.5
X1.8Y-2.9
X5.6Y-3.4
X1.8Y-3.5
X2.3Y-0.9
X5.8Y-1.5
X4.1Y-4.0
X1.3Y-3.8
X5.6Y-2.1
X6.2Y-4.0
X5.7Y-1.8
X1.2Y-1.4
X7.0Y-1.5
X3.1Y-2.4
X3.7Y-2.7
X4.8Y-3.3
X2.1Y-3.3
X4.7Y-1.0
X3.8Y-1.1
X4.8Y-1.4
X3.7Y-1.5
X3.9Y-4.0
X2.0Y-4.0
X5.8Y-2.7
X5.5Y-2.2
X1.0Y-2.1
X5.3Y-1.6
X3.1Y-1.8
X1.4Y-1.8
X6.3Y-1.4
X3.3Y-2.2
X1.1Y-2.7
X5.1Y-3.4
X2.8Y-3.5
X5.8Y-1.2
X3.4Y-0.9
X4.4Y-1.4
X5.0Y-3.8
X2.3Y-4.0
X1.5Y-3.7
X4.6Y-3.0
X4.8Y-2.5
X1.9Y-2.2
X6.1Y-1.5
X2.9Y-1.7
X2.6Y-1.5
X6.7Y-1.7
X3.2Y-2.2
X2.3Y-2.9
X4.2Y-3.2
X2.1Y-3.2
X5.7Y-0.9
X3.7Y-1.2
X3.3Y-1.4
X4.8Y-3.9
X2.5Y-3.7
X2.0Y-4.1
X5.7Y-2.9
X5.9Y-2.3
X1.1Y-2.4
X5.1Y-4.0
X5.5Y-1.7
X3.5Y-1.5
X2.2Y-1.4
X6.3Y-1.8
X4.5Y-2.4
X4.6Y-2.7
X6.4Y-3.5
X4.3Y-3.2
X4.7Y-1.2
X4.5Y-1.2
X1.1Y-1.0
X4.8Y-3.7
X2.6Y-3.7
X2.0Y-3.9
X5.4Y-3.0
X5.7Y-2.3
X1.2Y-2.1
X5.3Y-4.0
X4.6Y-2.3
X6.0Y-1.5
X2.5Y-2.7
X6.0Y-3.4
X2.6Y-3.4
X5.4Y-1.1
X4.2Y-1.2
X4.7Y-4.1
X2.7Y-4.0
X2.3Y-3.9
X5.8Y-3.0
X5.4Y-2.4
X1.4Y-2.1
X1.6Y-2.1
X5.7Y-4.1
X3.8Y-2.5
X3.0Y-3.0
X4.7Y-3.5
X2.5Y-3.4
X4.8Y-1.0
X5.2Y-1.2
X4.6Y-3.7
X3.1Y-3.8
X6.6Y-2.8
X6.8Y-2.5
X1.9Y-2.4
X0.9Y-2.5
X5.7Y-3.7
X4.0Y-2.5
X3.5Y-2.9
X6.5Y-3.4
X3.5Y-3.3
X6.0Y-1.1
X4.5Y-1.0
X1.3Y-1.2
X6.0Y-1.7
X2.9Y-4.0
X6.3Y-2.8
X5.1Y-2.1
X1.9Y-2.5
X1.6Y-2.3
X5.7Y-3.9
X1.6Y-1.4
X4.2Y-2.2
X3.4Y-3.0
X6.6Y-3.2
X3.0Y-3.3
X6.6Y-1.0
X4.3Y-1.1
X1.5Y-0.9
X7.1Y-1.6
X4.4Y-1.6
X3.5Y-3.9
X6.9Y-2.9
X2.3Y-2.2
X5.9Y-4.1
X6.5Y-1.8
X1.3Y-1.6
X3.1Y-3.0
X6.7Y-3.4
X3.1Y-3.3
X6.2Y-1.2
X1.8Y-0.9
X3.3Y-1.5
X4.0Y-1.6
X3.9Y-3.9
X6.7Y-2.9
X2.2Y-2.4
X6.3Y-3.7
X6.0Y-1.4
X1.9Y-1.6
X4.5Y-2.8
X5.9Y-3.2
X6.3Y-3.5
X2.7Y-3.2
X6.1Y-1.2
X2.0Y-1.2
X3.9Y-1.5
X3.2Y-3.9
X1.0Y-3.8
X2.7Y-2.2
X6.5Y-4.0
X6.5Y-2.1
X1.5Y-1.5
X5.0Y-2.8
X2.1Y-2.9
X6.8Y-3.4
X4.3Y-3.4
X6.6Y-1.2
X2.9Y-1.0
X3.7Y-3.9
X6.6Y-2.7
X2.1Y-1.8
X2.6Y-2.1
X6.8Y-3.7
X6.7Y-2.2
X1.5Y-1.4
X4.4Y-2.8
X2.0Y-2.7
X3.7Y-3.5
X6.7Y-1.2
X2.3Y-1.2
X3.2Y-4.1
X0.9Y-3.9
X2.4Y-1.8
X2.6Y-2.5
X6.5Y-4.1
X6.0Y-2.3
X5.5Y-2.9
X1.1Y-2.9
X5.5Y-3.4
X1.6Y-3.5
X3.1Y-1.2
X3.0Y-3.7
X1.0Y-4.1
X6.8Y-2.2
X2.1Y-1.6
X2.9Y-2.3
X6.7Y-4.1
X6.4Y-2.4
X1.0Y-1.7
X5.6Y-2.9
X2.1Y-2.8
X4.9Y-3.3
X1.7Y-3.4
X3.3Y-1.1
X4.4Y-3.7
X1.1Y-3.9
X5.9Y-2.2
X1.9Y-1.4
X3.2Y-2.3
X6.6Y-4.0
X7.0Y-2.1
X6.9Y-1.8
X4.0Y-2.1
X1.6Y-3.0
X5.0Y-3.4
X2.7Y-3.3
X1.9Y-1.1
X4.5Y-1.8
X4.3Y-3.9
X1.6Y-3.7
X4.7Y-2.1
X3.6Y-1.5
X6.9Y-3.9
X6.3Y-1.6
X6.9Y-1.5
X6.8Y-1.5
X3.4Y-2.4
X2.5Y-3.0
X4.7Y-3.3
X1.7Y-3.2
X3.2Y-1.2
X5.3Y-1.8
X4.1Y-3.8
X1.3Y-3.9
X4.7Y-2.2
X6.5Y-3.9
X7.0Y-2.5
X0.9Y-1.4
X6.6Y-1.8
X3.4Y-2.5
X3.4Y-2.7
X5.3Y-3.4
X2.2Y-3.5
X5.7Y-1.1
X3.9Y-1.0
X5.2Y-1.5
X4.3Y-1.7
X4.4Y-3.9
X2.2Y-3.9
X5.4Y-2.9
X5.0Y-2.3
X1.0Y-2.4
X5.3Y-1.5
X3.9Y-1.4
X1.2Y-1.7
X6.2Y-1.6
X4.0Y-2.3
X2.8Y-3.0
X5.2Y-3.5
X1.9Y-3.2
X5.5Y-1.2
X4.4Y-0.9
X3.5Y-1.8
X4.7Y-3.7
X2.7Y-3.9
X1.6Y-4.1
X6.5Y-3.0
X5.6Y-2.4
X1.5Y-2.2
X5.3Y-3.8
X5.1Y-1.8
X3.4Y-1.6
X2.9Y-1.5
X6.8Y-1.7
X3.8Y-2.4
X5.1Y-1.7
X2.6Y-2.7
X4.9Y-3.5
X2.2Y-3.2
X5.4Y-0.9
X4.0Y-1.2
X5.1Y-1.5
X4.9Y-3.7
X2.4Y-3.8
X2.1Y-4.1
X4.7Y-2.7
X7.1Y-2.3
X1.2Y-2.2
X4.7Y-4.0
X2.8Y-1.7
X6.7Y-1.5
X4.5Y-2.5
X4.8Y-1.7
X2.1Y-3.0
X6.8Y-3.2
X4.6Y-3.2
X5.1Y-1.1
X4.2Y-1.0
X1.1Y-1.1
X5.0Y-3.7
X2.2Y-4.1
X1.9Y-3.8
X5.6Y-2.7
X5.3Y-2.5
X1.0Y-2.5
X5.5Y-3.8
X4.4Y-2.4
X5.2Y-1.7
X3.2Y-2.7
X5.4Y-3.4
X3.9Y-3.5
X4.9Y-1.0
X4.1Y-1.1
X1.2Y-1.1
X4.9Y-4.0
X2.7Y-4.1
X1.7Y-3.7
X5.2Y-2.7
X5.5Y-2.4
X1.5Y-2.5
X1.3Y-2.2
X5.8Y-3.9
X4.5Y-2.3
X4.3Y-2.9
X6.1Y-3.3
X2.8Y-3.2
X4.8Y-1.2
X4.6Y-0.9
X4.9Y-1.4
X4.5Y-3.9
X2.8Y-3.7
X6.7Y-2.7
X5.5Y-2.5
X1.6Y-2.2
X1.0Y-2.2
X6.1Y-3.7
X4.0Y-2.2
X4.1Y-2.9
X5.3Y-3.2
X3.1Y-3.4
X6.9Y-1.0
X4.3Y-1.0
X1.4Y-0.9
X4.6Y-1.8
X4.5Y-1.6
X3.4Y-3.8
X6.2Y-2.7
X5.4Y-2.3
X2.3Y-2.5
X6.0Y-4.0
X1.7Y-1.4
X4.3Y-2.1
X3.3Y-2.8
X6.6Y-3.5
X3.0Y-3.4
X6.0Y-1.2
X5.1Y-1.2
X1.5Y-1.2
X4.6Y-1.7
X5.3Y-1.4
X3.6Y-1.7
X3.6Y-3.9
X5.9Y-2.9
X2.4Y-2.5
X6.1Y-3.8
X5.4Y-1.6
X1.8Y-1.4
X3.8Y-2.9
X6.9Y-3.4
X2.6Y-3.5
X6.4Y-1.2
X1.5Y-1.0
X3.9Y-1.7
X4.5Y-1.4
X3.3Y-3.7
X6.3Y-3.0
X2.4Y-2.2
X6.2Y-3.8
X6.3Y-1.5
X2.3Y-1.6
X5.3Y-2.9
X6.4Y-3.2
X6.8Y-3.3
X2.9Y-3.2
X6.1Y-0.9
X2.6Y-1.1
X3.7Y-1.6
X3.6Y-4.1
X6.6Y-2.9
X3.6Y-2.3
X6.5Y-3.7
X6.1Y-2.4
X1.4Y-1.7
X4.8Y-3.0
X1.4Y-2.8
X5.6Y-3.5
X3.3Y-3.5
X5.9Y-1.2
X1.7Y-0.9
X3.7Y-4.1
X6.4Y-2.7
X2.6Y-1.8
X2.8Y-2.2
X6.0Y-3.9
X6.3Y-2.5
X2.4Y-1.4
X5.5Y-2.8
X1.7Y-2.9
X4.0Y-3.2
X1.3Y-3.5
X2.4Y-1.0
X3.2Y-3.8
X6.1Y-2.7
X2.8Y-1.5
X3.5Y-2.3
X6.4Y-3.9
X6.6Y-2.1
X3.5Y-3.0
X1.5Y-3.0
X5.0Y-3.3
X2.0Y-3.2
X2.2Y-1.2
X3.5Y-3.8
X1.3Y-4.1
X5.9Y-2.1
X3.7Y-1.4
X2.7Y-2.5
X6.0Y-3.8
X6.7Y-2.4
X7.0Y-1.8
X3.9Y-2.9
X2.0Y-3.0
X5.7Y-3.2
X1.1Y-3.4
X2.3Y-1.0
X3.8Y-4.0
X1.4Y-3.8
X7.0Y-2.2
X2.4Y-1.6
X3.0Y-2.2
X7.0Y-3.9
X6.7Y-2.1
X1.1Y-1.5
X3.4Y-2.3
X2.2Y-3.0
X4.5Y-3.2
X1.7Y-3.5
X2.7Y-1.0
X5.7Y-1.6
X4.1Y-3.7
X1.4Y-4.0
X4.6Y-2.5
X1.8Y-1.7
X6.5Y-3.8
X6.8Y-2.4
X1.0Y-1.6
X5.4Y-1.7
X3.3Y-2.1
X3.1Y-2.7
X5.0Y-3.2
X1.3Y-3.3
X2.9Y-0.9
X4.2Y-1.6
X3.8Y-3.7
X1.6Y-3.9
X5.0Y-2.1
X6.4Y-3.8
X6.9Y-2.3
X1.9Y-1.5
X5.9Y-1.5
X3.7Y-2.2
X3.3Y-2.7
X5.1Y-3.3
X2.4Y-3.4
X5.0Y-1.1
X4.1Y-1.2
X1.1Y-1.2
X3.4Y-1.8
X4.2Y-4.0
X1.6Y-4.0
X5.0Y-2.7
X4.8Y-2.3
X1.2Y-2.3
X6.7Y-2.5
X2.9Y-1.8
X3.0Y-1.6
X1.8Y-1.6
X6.7Y-1.8
X5.1Y-2.3
X2.7Y-3.0
X4.7Y-3.2
X1.1Y-3.2
X5.3Y-1.2
X3.0Y-1.2
X3.7Y-1.8
X5.5Y-3.7
X2.5Y-3.9
X1.7Y-3.8
X5.6Y-2.8
X5.0Y-2.4
X1.9Y-2.3
X5.4Y-4.0
X6.6Y-1.5
X2.7Y-1.7
X2.7Y-1.4
X6.0Y-1.6
X4.1Y-2.1
X4.3Y-2.7
X5.4Y-3.5
X2.9Y-3.5
X4.9Y-1.2
X3.9Y-1.2
X4.8Y-4.1
X2.3Y-4.1
X1.9Y-3.9
X4.8Y-2.9
X6.0Y-2.2
X1.8Y-2.2
X4.9Y-3.8
X2.9Y-1.4
X5.9Y-1.7
X4.2Y-2.4
X1.9Y-2.7
X4.6Y-3.5
X4.4Y-3.2
X5.1Y-0.9
X3.8Y-1.2
X1.2Y-0.9
X5.2Y-3.7
X2.9Y-3.7
X1.9Y-4.0
X6.9Y-2.8
X6.1Y-2.1
X1.7Y-2.4
X5.3Y-3.9
X4.3Y-2.5
X3.5Y-2.7
X5.6Y-3.3
X3.3Y-3.3
X6.5Y-1.2
X4.0Y-0.9
X4.7Y-3.8
X2.8Y-3.9
X2.3Y-3.8
X6.2Y-3.0
X4.7Y-2.4
X1.7Y-2.1
X1.2Y-2.4
X6.8Y-4.1
X3.7Y-2.5
X2.7Y-2.7
X6.5Y-3.5
X2.4Y-3.3
X5.5Y-1.0
X4.1Y-0.9
X1.4Y-1.1
X4.7Y-1.8
X5.1Y-3.8
X2.6Y-4.1
X6.8Y-2.8
X5.7Y-2.1
X2.1Y-2.3
X2.1Y-2.1
X5.7Y-3.8
X4.1Y-2.4
X4.4Y-2.7
X6.7Y-3.3
X3.2Y-3.4
X6.3Y-1.0
X4.3Y-1.2
X1.4Y-1.2
X5.7Y-1.7
X4.5Y-1.5
X2.9Y-3.8
X0.9Y-4.0
X4.8Y-2.2
X1.7Y-2.2
X5.9Y-3.8
X1.6Y-1.7
X4.3Y-2.3
X3.2Y-2.8
X6.1Y-3.5
X3.1Y-3.2
X5.9Y-1.0
X3.5Y-1.1
X1.6Y-0.9
X4.8Y-1.8
X4.3Y-1.6
X5.0Y-1.5
X3.7Y-3.7
X6.3Y-2.9
X2.1Y-2.4
X6.7Y-3.9
X5.6Y-1.6
X2.0Y-1.6
X3.8Y-3.0
X6.1Y-3.4
X3.8Y-3.3
X6.7Y-0.9
X2.0Y-1.1
X4.3Y-1.4
X4.1Y-1.6
X3.3Y-3.8
X6.0Y-3.0
X2.5Y-2.2
X6.7Y-3.8
X5.4Y-1.5
X2.0Y-1.5
X5.7Y-2.8
X1.7Y-3.0
X5.9Y-3.5
X3.0Y-3.5
X6.3Y-1.2
X3.0Y-1.0
X3.2Y-1.8
X3.6Y-4.0
X6.2Y-2.9
X2.8Y-2.1
X6.3Y-4.0
X6.0Y-2.5
X1.4Y-1.4
X4.3Y-2.8
X2.7Y-2.8
X5.7Y-3.5
X3.2Y-3.5
X6.6Y-0.9
X2.1Y-0.9
X3.9Y-3.8
X6.7Y-3.0
X3.6Y-1.8
X2.6Y-2.3
X6.6Y-3.9
X6.2Y-2.5
X1.6Y-1.6
T0
M30
